<svg width="16" height="17" viewBox="0 0 16 17" fill="none" xmlns="http://www.w3.org/2000/svg">
<g clip-path="url(#clip0)">
<path d="M1.34996 16.0753C1.04996 16.0753 0.849963 15.9753 0.649963 15.7753C0.249963 15.3753 0.249963 14.7753 0.649963 14.3753L6.74996 8.27527L0.449963 1.97527C0.0499634 1.57527 0.0499634 0.975269 0.449963 0.575269C0.849963 0.175269 1.44996 0.175269 1.84996 0.575269L8.84996 7.57527C9.04996 7.77527 9.14996 7.97527 9.14996 8.27527C9.14996 8.57527 9.04996 8.77527 8.84996 8.97527L2.04996 15.7753C1.84996 15.9753 1.54996 16.0753 1.34996 16.0753Z" fill="#8C003D"/>
<path d="M7.94996 16.0753C7.64996 16.0753 7.44996 15.9753 7.24996 15.7753C6.84996 15.3753 6.84996 14.7753 7.24996 14.3753L13.45 8.27527L7.14996 1.97527C6.74996 1.57527 6.74996 0.975269 7.14996 0.575269C7.54996 0.175269 8.14996 0.175269 8.54996 0.575269L15.55 7.57527C15.75 7.77527 15.85 7.97527 15.85 8.27527C15.85 8.57527 15.75 8.77527 15.55 8.97527L8.74996 15.7753C8.54996 15.9753 8.24996 16.0753 7.94996 16.0753Z" fill="#8C003D"/>
</g>
<defs>
<clipPath id="clip0">
<rect width="15.7" height="15.8" fill="white" transform="translate(0.149963 0.275269)"/>
</clipPath>
</defs>
</svg>
