<svg width="28" height="24" viewBox="0 0 28 24" fill="none" xmlns="http://www.w3.org/2000/svg">
<path d="M27.9 12.55C28 12.35 28 12.05 27.9 11.75C27.8 11.65 27.8 11.55 27.7 11.45L17.5 1.25001C17.1 0.850012 16.5 0.850012 16.1 1.25001C15.7 1.65001 15.7 2.25001 16.1 2.65001L24.6 11.15H1C0.4 11.15 0 11.55 0 12.15C0 12.75 0.4 13.15 1 13.15H24.6L16 21.75C15.6 22.15 15.6 22.75 16 23.15C16.2 23.35 16.5 23.45 16.7 23.45C16.9 23.45 17.2 23.35 17.4 23.15L27.7 12.95C27.8 12.85 27.9 12.75 27.9 12.55Z" fill="#DDAF73"/>
</svg>
