<svg width="25" height="25" viewBox="0 0 25 25" fill="none" xmlns="http://www.w3.org/2000/svg">
<path d="M23.5 9.19998H20.5V8.99998C20.4 4.39998 16.7 0.699982 12.1 0.699982C7.5 0.699982 3.8 4.39998 3.7 8.99998V9.19998H0.7C0.4 9.19998 0.2 9.29998 0.1 9.49998C0 9.69998 0 9.99998 0 10.1L2.4 24.3C2.5 24.7 2.8 25 3.2 25H21.1C21.5 25 21.8 24.7 21.9 24.3L24.3 10.1C24.3 9.99998 24.3 9.69998 24.1 9.49998C23.9 9.29998 23.7 9.19998 23.5 9.19998ZM5.3 8.89998C5.4 5.19998 8.4 2.19998 12.1 2.19998C15.8 2.19998 18.8 5.19998 18.9 8.89998V9.19998H5.3V8.89998ZM20.4 23.3H3.8L1.7 10.7H22.5L20.4 23.3Z" fill="#FFFFFF"/>
</svg>
