<svg width="25" height="26" viewBox="0 0 25 26" fill="none" xmlns="http://www.w3.org/2000/svg">

<path d="M23.5 9.25H20.5V9.05C20.4 4.45 16.7 0.75 12.1 0.75C7.6 0.75 3.8 4.45 3.8 9.05V9.25H0.8C0.5 9.25 0.3 9.35 0.2 9.55C0 9.75 0 10.05 0 10.15L2.4 24.35C2.5 24.75 2.8 25.05 3.2 25.05H21.1C21.5 25.05 21.8 24.75 21.9 24.35L24.3 10.15C24.3 10.05 24.3 9.75 24.1 9.55C23.9 9.35 23.7 9.25 23.5 9.25ZM5.3 9.05C5.4 5.35 8.4 2.35 12.1 2.35C15.8 2.35 18.8 5.35 18.9 9.05V9.35H5.3V9.05ZM20.4 23.45H3.8L1.7 10.85H22.5L20.4 23.45Z" fill="#DDAF73"/>

</svg>
