<svg width="18" height="13" viewBox="0 0 18 13" fill="none" xmlns="http://www.w3.org/2000/svg">
<path d="M0.8 0H14.4C14.8 0 15.2 0.299999 15.2 0.799999C15.2 1.3 14.9 1.6 14.4 1.6H0.8C0.4 1.6 1.2207e-05 1.3 1.2207e-05 0.799999C1.2207e-05 0.299999 0.4 0 0.8 0Z" transform="translate(0 11.4)" fill="#8C003D"/>
<path d="M11.1 1.6H0.8C0.4 1.6 1.2207e-05 1.3 1.2207e-05 0.800002C1.2207e-05 0.300002 0.3 -1.52588e-06 0.8 -1.52588e-06H11.1C11.5 -1.52588e-06 11.9 0.300002 11.9 0.800002C11.9 1.3 11.5 1.6 11.1 1.6Z" fill="#8C003D"/>
<path d="M0.8 1.52588e-06H16.8C17.2 1.52588e-06 17.6 0.300001 17.6 0.800001C17.6 1.3 17.3 1.6 16.8 1.6H0.8C0.4 1.6 1.2207e-05 1.3 1.2207e-05 0.800001C1.2207e-05 0.300001 0.4 1.52588e-06 0.8 1.52588e-06Z" transform="translate(0 5.79999)" fill="#8C003D"/>
</svg>
