<svg width="11" height="10" viewBox="0 0 11 10" fill="none" xmlns="http://www.w3.org/2000/svg">
<g clip-path="url(#clip0)">
<path d="M6.54997 4.87527L10.05 1.37527C10.35 1.07527 10.35 0.675269 10.05 0.375269C9.74997 0.0752686 9.34997 0.0752686 9.04997 0.375269L5.54997 3.87527L2.04997 0.375269C1.74997 0.0752686 1.34997 0.0752686 1.04997 0.375269C0.749974 0.675269 0.749974 1.07527 1.04997 1.37527L4.54997 4.87527L1.04997 8.27527C0.749974 8.57527 0.749974 8.97527 1.04997 9.27527C1.14997 9.37527 1.34997 9.47527 1.54997 9.47527C1.74997 9.47527 1.94997 9.37527 2.04997 9.27527L5.54997 5.77527L9.04997 9.27527C9.14997 9.37527 9.34997 9.47527 9.54997 9.47527C9.74997 9.47527 9.84997 9.47527 9.94997 9.27527C10.25 8.97527 10.25 8.57527 9.94997 8.27527L6.54997 4.87527Z" fill="#999999"/>
</g>
<defs>
<clipPath id="clip0">
<rect width="9.3" height="9.3" fill="white" transform="translate(0.849976 0.175262)"/>
</clipPath>
</defs>
</svg>
