<svg width="34" height="34" viewBox="0 0 34 34" fill="none" xmlns="http://www.w3.org/2000/svg">
<path d="M18.1494 16.5V0.999976C18.1494 0.499976 17.7494 0.0999756 17.2494 0.0999756C16.7494 0.0999756 16.3494 0.499976 16.3494 0.999976V16.5C14.1494 16.9 12.4494 18.9 12.4494 21.2C12.4494 23.5 14.1494 25.5 16.3494 25.9V32.8C16.3494 33.3 16.7494 33.7 17.2494 33.7C17.7494 33.7 18.1494 33.3 18.1494 32.8V25.9C20.3494 25.5 22.0494 23.5 22.0494 21.2C22.0494 18.9 20.3494 17 18.1494 16.5ZM17.2494 24.1C15.6494 24.1 14.3494 22.8 14.3494 21.2C14.3494 19.6 15.6494 18.3 17.2494 18.3C18.8494 18.3 20.1494 19.6 20.1494 21.2C20.1494 22.8 18.8494 24.1 17.2494 24.1Z" fill="#DDAF73"/>
<path d="M6.54937 8.59998V0.999976C6.54937 0.499976 6.14937 0.0999756 5.64937 0.0999756C5.14937 0.0999756 4.74937 0.499976 4.74937 0.999976V8.49998C2.54937 8.99998 0.849365 11 0.849365 13.3C0.849365 15.6 2.54937 17.6 4.74937 18V32.8C4.74937 33.3 5.14937 33.7 5.64937 33.7C6.14937 33.7 6.54937 33.3 6.54937 32.8V18C8.74936 17.6 10.4494 15.6 10.4494 13.3C10.4494 11 8.74936 8.99998 6.54937 8.59998ZM5.64937 16.2C4.04937 16.2 2.74937 14.9 2.74937 13.3C2.74937 11.7 4.04937 10.4 5.64937 10.4C7.24937 10.4 8.54937 11.7 8.54937 13.3C8.54937 14.9 7.24937 16.2 5.64937 16.2Z" fill="#DDAF73"/>
<path d="M29.7494 8.59998V0.999976C29.7494 0.499976 29.3494 0.0999756 28.8494 0.0999756C28.2494 0.0999756 27.8494 0.499976 27.8494 0.999976V8.49998C25.6494 8.89997 23.9494 10.9 23.9494 13.2C23.9494 15.5 25.6494 17.5 27.8494 17.9V32.7C27.8494 33.2 28.2494 33.6 28.7494 33.6C29.2494 33.6 29.6494 33.2 29.6494 32.7V18C31.8494 17.6 33.5494 15.6 33.5494 13.3C33.5494 11 31.9494 8.99998 29.7494 8.59998ZM28.7494 16.2C27.1494 16.2 25.8494 14.9 25.8494 13.3C25.8494 11.7 27.1494 10.4 28.7494 10.4C30.3494 10.4 31.6494 11.7 31.6494 13.3C31.6494 14.9 30.3494 16.2 28.7494 16.2Z" fill="#DDAF73"/>
</svg>
