<svg width="21" height="22" viewBox="0 0 21 22" fill="none" xmlns="http://www.w3.org/2000/svg">
<path d="M18 13.7C20.2 13 21.5 10.4 20.8 8.1C20.1 5.8 17.6 4.6 15.4 5.3C15 5.5 14.7 5.6 14.4 5.8C14.5 5.5 14.5 5.1 14.5 4.8C14.5 2.4 12.8 0.5 10.5 0.5C8.2 0.5 6.4 2.4 6.4 4.8C6.4 5.1 6.4 5.4 6.5 5.8C6.2 5.6 5.9 5.5 5.6 5.4C3.4 4.6 0.900004 5.9 0.200004 8.1C-0.499996 10.4 0.700004 12.9 3 13.7C3.3 13.8 3.6 13.9 4 13.9C3.8 14.1 3.5 14.4 3.3 14.6C1.9 16.5 2.3 19.2 4.3 20.6C6.2 22 8.7 21.6 10.1 19.6C10.3 19.3 10.4 19.1 10.6 18.8C10.7 19.1 10.9 19.4 11.1 19.6C12.5 21.5 14.9 21.9 16.8 20.6C18.7 19.2 19.1 16.5 17.8 14.6C17.6 14.3 17.4 14.1 17.1 13.9C17.4 13.9 17.7 13.8 18 13.7ZM10.5 13.5C9.5 13.5 8.7 12.7 8.7 11.7C8.7 10.7 9.5 9.9 10.5 9.9C11.5 9.9 12.3 10.7 12.3 11.7C12.4 12.7 11.5 13.5 10.5 13.5ZM10.5 1.7C12.1 1.7 13.3 3 13.3 4.8C13.3 5.6 13 6.6 12.5 7.4C12.4 7.5 12.4 7.6 12.4 7.7L11.8 8.8C11.6 8.7 11.4 8.7 11.2 8.6V6.2C11.2 5.9 10.9 5.6 10.6 5.6C10.3 5.6 9.9 5.8 9.9 6.2V8.7C9.7 8.7 9.5 8.8 9.3 8.9L8.6 7.7C8.6 7.6 8.6 7.5 8.5 7.4C8 6.6 7.7 5.6 7.7 4.8C7.7 3 8.9 1.7 10.5 1.7ZM3.4 12.5C1.8 12 0.900004 10.1 1.4 8.5C1.9 6.9 3.7 6 5.3 6.5C6 6.7 6.7 7.2 7.3 7.8L8.4 9.5C8.1 9.8 8 10 7.9 10.2L5.5 9.4C5.1 9.3 4.8 9.5 4.7 9.8C4.6 10.1 4.8 10.5 5.1 10.6L7.5 11.4C7.5 11.6 7.5 11.9 7.5 12.1L6 12.6C5 12.8 4.1 12.8 3.4 12.5ZM9 19C8 20.4 6.3 20.7 4.9 19.7C3.5 18.7 3.2 16.8 4.2 15.4C5 14.3 6.4 13.8 6.5 13.7L7.8 13.3C7.9 13.5 8 13.7 8.2 13.8L6.7 15.8C6.5 16.1 6.6 16.5 6.8 16.7C7.1 16.9 7.5 16.8 7.7 16.6L9.2 14.6C9.4 14.7 9.6 14.8 9.9 14.8V16.5C9.8 17.3 9.5 18.3 9 19ZM16 19.6C14.6 20.6 13 20.3 12 18.9C11.5 18.3 11.2 17.3 11.1 16.3V14.6C11.3 14.6 11.6 14.5 11.8 14.4L13.3 16.4C13.5 16.7 13.9 16.7 14.2 16.5C14.5 16.3 14.5 15.9 14.3 15.6L12.8 13.6C13 13.4 13.1 13.3 13.2 13.1L14.3 13.5C14.4 13.6 15.8 14.1 16.7 15.2C17.7 16.7 17.4 18.6 16 19.6ZM15.1 12.6L13.6 12.1C13.6 11.9 13.6 11.6 13.6 11.4L16 10.6C16.3 10.5 16.5 10.1 16.4 9.8C16.3 9.5 15.9 9.3 15.6 9.4L13.2 10.2C13.1 10 12.9 9.8 12.8 9.6L13.8 7.8C14.4 7.2 15.1 6.7 15.7 6.5C17.3 6 19 6.9 19.6 8.5C20.1 10.1 19.2 12 17.6 12.5C16.9 12.8 16 12.8 15.1 12.6Z" fill="#8C003D"/>
</g>
</svg>
