<svg width="32" height="29" viewBox="0 0 32 29" fill="none" xmlns="http://www.w3.org/2000/svg">
<path d="M22.85 15.5531H18.55C17.35 15.5531 16.45 16.5531 16.45 17.6531V20.9531C16.45 22.1531 17.45 23.0531 18.55 23.0531H22.85C24.05 23.0531 24.95 22.0531 24.95 20.9531V17.6531C24.95 16.4531 24.05 15.5531 22.85 15.5531ZM23.45 20.9531C23.45 21.2531 23.15 21.5531 22.85 21.5531H18.55C18.25 21.5531 17.95 21.2531 17.95 20.9531V17.6531C17.95 17.3531 18.25 17.0531 18.55 17.0531H22.85C23.15 17.0531 23.45 17.3531 23.45 17.6531V20.9531Z" fill="#8C003D"/>
<path d="M31.95 9.55307C31.95 9.45307 31.95 9.25307 31.85 9.15307L27.15 0.95307C27.05 0.75307 26.75 0.55307 26.55 0.55307H5.95001C5.65001 0.55307 5.35001 0.65307 5.25001 0.95307L0.550012 9.15307C0.450012 9.35307 0.450012 9.45307 0.450012 9.55307C0.450012 11.3531 1.55001 12.9531 3.15001 13.6531V27.2531C3.15001 27.6531 3.45001 28.0531 3.95001 28.0531H8.25001H14.25H28.45C28.85 28.0531 29.25 27.7531 29.25 27.2531V13.7531V13.6531C30.85 13.0531 31.95 11.4531 31.95 9.55307ZM6.35001 2.15307H26.05L29.75 8.55307H2.75001L6.35001 2.15307ZM22.85 10.0531C22.65 11.4531 21.45 12.5531 19.95 12.5531C18.45 12.5531 17.25 11.4531 17.05 10.1531H22.85V10.0531ZM15.35 10.0531C15.15 11.4531 13.95 12.5531 12.45 12.5531C10.95 12.5531 9.75001 11.4531 9.55001 10.1531H15.35V10.0531ZM2.05001 10.0531H7.95001C7.65001 11.4531 6.45001 12.5531 4.95001 12.5531C3.55001 12.5531 2.25001 11.4531 2.05001 10.0531ZM13.45 26.5531H8.95001V18.2531C8.95001 17.6531 9.45001 17.1531 10.05 17.1531H12.25C12.85 17.1531 13.35 17.6531 13.35 18.2531L13.45 26.5531ZM27.75 26.5531H14.95V18.2531C14.95 16.7531 13.75 15.6531 12.35 15.6531H10.05C8.65001 15.5531 7.45001 16.7531 7.45001 18.1531V26.5531H4.75001V14.0531C4.85001 14.0531 4.95001 14.0531 5.05001 14.0531C6.65001 14.0531 7.95001 13.2531 8.75001 12.0531C9.55001 13.2531 10.95 14.0531 12.45 14.0531C14.05 14.0531 15.35 13.2531 16.15 12.0531C16.95 13.2531 18.35 14.0531 19.85 14.0531C21.45 14.0531 22.75 13.2531 23.55 12.0531C24.35 13.2531 25.75 14.0531 27.25 14.0531C27.35 14.0531 27.45 14.0531 27.55 14.0531V26.5531H27.75ZM27.45 12.5531C25.95 12.5531 24.75 11.4531 24.55 10.1531H30.45C30.15 11.4531 28.95 12.5531 27.45 12.5531Z" fill="#8C003D"/>
</svg>
