<svg width="17" height="17" viewBox="0 0 17 17" fill="none" xmlns="http://www.w3.org/2000/svg">
<g clip-path="url(#clip0)">
<path d="M16.3892 14.3625L12.1892 10.1625C13.9892 7.66251 13.6892 4.26251 11.4892 2.16251C10.2892 0.962512 8.68925 0.262512 6.98925 0.262512C5.38925 0.262512 3.78925 0.862512 2.58925 2.06251C0.189246 4.46251 0.189246 8.46251 2.58925 10.9625C4.78925 13.1625 8.18925 13.3625 10.5892 11.6625L14.7892 15.8625C14.9892 16.0625 15.2892 16.1625 15.4892 16.1625C15.6892 16.1625 15.9892 16.0625 16.1892 15.8625C16.3892 15.6625 16.4892 15.3625 16.4892 15.1625C16.4892 14.9625 16.5892 14.5625 16.3892 14.3625ZM2.88925 6.56251C2.88925 5.46251 3.28925 4.36251 4.08925 3.66251C4.88925 2.86251 5.88925 2.46251 6.98925 2.46251C8.08925 2.46251 9.18925 2.86251 9.88925 3.66251C11.4892 5.26251 11.4892 7.96251 9.88925 9.56251C8.28925 11.1625 5.68925 11.1625 3.98925 9.56251C3.28925 8.66251 2.88925 7.66251 2.88925 6.56251Z" fill="#8C003D"/>
</g>
<defs>
<clipPath id="clip0">
<rect width="15.9" height="15.9" fill="white" transform="translate(0.789246 0.262512)"/>
</clipPath>
</defs>
</svg>
