<svg width="41" height="29" viewBox="0 0 41 29" fill="none" xmlns="http://www.w3.org/2000/svg">
<path d="M33.45 20.6531C32.45 20.6531 31.55 21.0531 30.85 21.7531C30.15 22.4531 29.75 23.3531 29.75 24.3531C29.75 25.3531 30.15 26.2531 30.85 26.9531C31.55 27.6531 32.45 28.0531 33.45 28.0531C35.45 28.0531 37.15 26.3531 37.15 24.3531C37.05 22.3531 35.45 20.6531 33.45 20.6531ZM33.45 26.4531C32.35 26.4531 31.35 25.5531 31.35 24.3531C31.35 23.2531 32.35 22.2531 33.45 22.2531C34.55 22.2531 35.45 23.1531 35.45 24.3531C35.45 25.5531 34.55 26.4531 33.45 26.4531ZM34.35 8.35307C34.25 8.25307 34.05 8.15307 33.75 8.15307H29.55C29.05 8.15307 28.75 8.55307 28.75 8.95307V15.6531C28.75 16.1531 29.15 16.4531 29.55 16.4531H36.25C36.75 16.4531 37.05 16.0531 37.05 15.6531V11.1531C37.05 10.9531 36.95 10.6531 36.75 10.5531L34.35 8.35307ZM35.45 14.8531H30.45V9.75307H33.45L35.45 11.5531V14.8531ZM13.35 20.6531C12.35 20.6531 11.45 21.0531 10.75 21.7531C10.05 22.4531 9.65001 23.3531 9.65001 24.3531C9.65001 25.3531 10.05 26.2531 10.75 26.9531C11.45 27.6531 12.35 28.0531 13.35 28.0531C15.35 28.0531 17.05 26.3531 17.05 24.3531C16.95 22.3531 15.35 20.6531 13.35 20.6531ZM13.35 26.4531C12.25 26.4531 11.25 25.5531 11.25 24.3531C11.25 23.2531 12.25 22.2531 13.35 22.2531C14.45 22.2531 15.35 23.1531 15.35 24.3531C15.35 25.5531 14.45 26.4531 13.35 26.4531ZM7.85001 21.6531H6.15001V19.4531C6.15001 18.9531 5.75001 18.6531 5.35001 18.6531C4.85001 18.6531 4.55001 19.0531 4.55001 19.4531V22.4531C4.55001 22.9531 4.95001 23.2531 5.35001 23.2531H7.85001C8.35001 23.2531 8.65001 22.8531 8.65001 22.4531C8.65001 22.0531 8.25001 21.6531 7.85001 21.6531ZM12.05 17.2531C12.05 16.7531 11.65 16.4531 11.25 16.4531H1.25001C0.750011 16.4531 0.450012 16.8531 0.450012 17.2531C0.450012 17.7531 0.850011 18.0531 1.25001 18.0531H11.25C11.65 18.0531 12.05 17.6531 12.05 17.2531ZM2.85001 14.2531L12.85 14.3531C13.35 14.3531 13.65 13.9531 13.65 13.5531C13.65 13.0531 13.25 12.7531 12.85 12.7531L2.85001 12.6531C2.35001 12.6531 2.05001 13.0531 2.05001 13.4531C2.05001 13.8531 2.45001 14.2531 2.85001 14.2531ZM4.55001 10.5531H14.55C15.05 10.5531 15.35 10.1531 15.35 9.75307C15.35 9.25307 14.95 8.95307 14.55 8.95307H4.55001C4.05001 8.95307 3.75001 9.35307 3.75001 9.75307C3.75001 10.1531 4.15001 10.5531 4.55001 10.5531ZM40.45 9.35307L34.55 4.55307C34.45 4.45307 34.25 4.35307 34.05 4.35307H27.15V1.35307C27.15 0.85307 26.75 0.55307 26.35 0.55307H5.35001C4.85001 0.55307 4.55001 0.95307 4.55001 1.35307V7.35307C4.55001 7.85307 4.95001 8.15307 5.35001 8.15307C5.85001 8.15307 6.15001 7.75307 6.15001 7.35307V2.15307H25.45V21.6531H18.75C18.25 21.6531 17.95 22.0531 17.95 22.4531C17.95 22.9531 18.35 23.2531 18.75 23.2531H28.75C29.25 23.2531 29.55 22.8531 29.55 22.4531C29.55 21.9531 29.15 21.6531 28.75 21.6531H27.05V5.95307H33.65L39.05 10.3531L38.95 21.6531H38.05C37.55 21.6531 37.25 22.0531 37.25 22.4531C37.25 22.9531 37.65 23.2531 38.05 23.2531H39.75C40.25 23.2531 40.55 22.8531 40.55 22.4531L40.65 9.95307C40.75 9.75307 40.65 9.55307 40.45 9.35307Z" fill="#8C003D"/>
</svg>
