<svg width="68" height="80" viewBox="0 0 68 80" fill="none" xmlns="http://www.w3.org/2000/svg">
<path d="M67.8584 21.8408C67.8584 21.0408 67.7584 20.1408 67.7584 19.2408C67.6584 15.2408 64.5584 11.9408 60.4584 11.6408C50.9584 11.1408 43.5584 8.04081 37.2584 1.84081C36.3584 1.04081 35.3584 0.640808 34.2584 0.640808C33.2584 0.640808 32.1584 1.04081 31.3584 1.74081C25.0584 8.04081 17.6584 11.1408 8.15839 11.7408C4.15839 11.9408 0.958389 15.2408 0.858389 19.3408C0.858389 20.2408 0.858389 21.0408 0.758389 21.8408V21.9408C0.558389 31.3408 0.358389 43.0408 4.25839 53.6408C6.35839 59.4408 9.55839 64.4408 13.8584 68.5408C18.6584 73.2408 24.9584 76.9408 32.6584 79.6408C32.8584 79.7408 33.0584 79.7408 33.3584 79.8408C33.9584 79.9408 34.6584 79.9408 35.2584 79.8408C35.4584 79.8408 35.7584 79.7408 35.9584 79.6408C43.5584 76.9408 49.9584 73.2408 54.7584 68.5408C58.9584 64.4408 62.1584 59.4408 64.3584 53.6408C68.2584 42.9408 67.9584 31.2408 67.8584 21.8408ZM61.4584 52.5408C57.2584 64.0408 48.5584 71.9408 34.9584 76.7408C34.8584 76.7408 34.7584 76.8408 34.6584 76.8408C34.5584 76.8408 34.3584 76.8408 34.2584 76.8408C34.1584 76.8408 33.9584 76.8408 33.8584 76.8408C33.7584 76.8408 33.6584 76.8408 33.5584 76.7408C20.0584 72.0408 11.4584 64.0408 7.15839 52.5408C3.45839 42.5408 3.65839 31.6408 3.85839 21.9408C3.85839 21.0408 3.95839 20.2408 3.95839 19.2408C3.95839 16.8408 5.95839 14.8408 8.35839 14.6408C13.5584 14.3408 18.0584 13.3408 22.1584 11.6408C26.2584 9.84081 29.9584 7.44081 33.4584 4.04081C33.9584 3.54081 34.6584 3.54081 35.1584 4.04081C38.6584 7.44081 42.3584 9.84081 46.4584 11.6408C50.6584 13.4408 55.1584 14.4408 60.2584 14.6408C62.6584 14.7408 64.6584 16.7408 64.6584 19.2408C64.6584 20.1408 64.6584 21.0408 64.7584 21.8408C64.9584 31.5408 65.1584 42.4408 61.4584 52.5408Z" fill="#8C003D"/>
<path d="M34.3584 21.0408C23.7584 21.0408 15.0584 29.7408 15.0584 40.3408C15.0584 50.9408 23.7584 59.6408 34.3584 59.6408C44.9584 59.6408 53.6584 50.9408 53.6584 40.3408C53.6584 29.7408 44.9584 21.0408 34.3584 21.0408ZM34.3584 56.5408C25.3584 56.5408 18.0584 49.2408 18.0584 40.2408C18.0584 31.2408 25.3584 23.9408 34.3584 23.9408C43.3584 23.9408 50.6584 31.2408 50.6584 40.2408C50.5584 49.2408 43.2584 56.5408 34.3584 56.5408Z" fill="#8C003D"/>
<path d="M40.7584 34.6408L30.7584 44.6408L27.6584 41.5408C27.3584 41.2408 26.9584 41.1408 26.5584 41.1408C26.1584 41.1408 25.7584 41.2408 25.4584 41.5408C24.8584 42.1408 24.8584 43.1408 25.4584 43.6408L29.6584 47.8408C30.2584 48.4408 31.2584 48.4408 31.7584 47.8408L42.7584 36.8408C43.3584 36.2408 43.3584 35.2408 42.7584 34.7408C42.2584 34.0408 41.2584 34.0408 40.7584 34.6408Z" fill="#8C003D"/>
</svg>
