<svg width="82" height="79" viewBox="0 0 82 79" fill="none" xmlns="http://www.w3.org/2000/svg">
<path d="M74.8987 0.740845H18.3987C14.6987 0.740845 11.6987 3.74084 11.6987 7.44084V59.9408H2.29865C1.59865 59.9408 0.998657 60.5408 0.998657 61.2408V63.9408C0.998657 67.6408 3.99867 70.6408 7.69867 70.6408H49.3987V77.3408C49.3987 77.8408 49.6986 78.3409 50.0986 78.5408C50.5986 78.7408 51.0987 78.7408 51.4987 78.4408L56.0986 75.0408L60.6987 78.4408C60.8987 78.6408 61.1987 78.7408 61.4987 78.7408C61.6987 78.7408 61.8986 78.7408 62.0986 78.6408C62.5986 78.4408 62.7986 77.9408 62.7986 77.4408V70.7408H64.0986C67.7986 70.7408 70.7986 67.7408 70.7986 64.0408V11.5408H80.1987C80.8987 11.5408 81.4987 10.9408 81.4987 10.2408V7.44084C81.5987 3.74084 78.5987 0.740845 74.8987 0.740845ZM49.3987 68.0408H7.69867C5.49867 68.0408 3.69867 66.2408 3.69867 64.0408V62.7408H49.4987V68.0408H49.3987ZM60.0986 74.7408L56.8987 72.3408C56.3987 71.9408 55.7986 71.9408 55.2986 72.3408L52.0986 74.7408V59.7408C52.3986 59.7408 52.5987 59.7408 52.8987 59.7408C53.6987 60.7408 54.8986 61.3408 56.0986 61.3408C57.3986 61.3408 58.5986 60.7408 59.2986 59.7408C59.5986 59.7408 59.7986 59.7408 60.0986 59.7408V74.7408ZM61.8987 53.1408C61.4987 53.2408 61.2986 53.5408 61.0986 53.9408C60.9986 54.3408 60.9986 54.6408 61.0986 55.0408C61.3986 55.5408 61.1986 56.2408 60.7986 56.6408C60.3986 57.0408 59.6987 57.1408 59.1987 56.9408C58.8987 56.7408 58.4986 56.7408 58.0986 56.9408C57.6986 57.0408 57.4986 57.3408 57.2986 57.7408C57.0986 58.3408 56.5987 58.6408 55.9987 58.6408C55.3987 58.6408 54.8987 58.2408 54.6987 57.7408C54.5987 57.3408 54.2987 57.1408 53.8987 56.9408C53.4987 56.8408 53.0986 56.8408 52.7986 56.9408C52.2986 57.2408 51.5987 57.0408 51.1987 56.6408C50.7987 56.2408 50.6987 55.5408 50.8987 55.0408C51.0987 54.7408 51.0987 54.3408 50.8987 53.9408C50.7987 53.5408 50.4986 53.3408 50.0986 53.1408C49.4986 52.9408 49.1987 52.4408 49.1987 51.8408C49.1987 51.2408 49.5986 50.7408 50.0986 50.5408C50.4986 50.4408 50.6987 50.1408 50.8987 49.7408C50.9987 49.3408 50.9987 49.0408 50.8987 48.6408C50.5987 48.1408 50.7987 47.4408 51.1987 47.0408C51.5987 46.6408 52.2986 46.5408 52.7986 46.7408C53.0986 46.9408 53.4987 46.9408 53.8987 46.7408C54.2987 46.6408 54.4987 46.3408 54.6987 45.9408C54.8987 45.3408 55.3987 45.0408 55.9987 45.0408C56.5987 45.0408 57.0986 45.4408 57.2986 45.9408C57.3986 46.3408 57.6986 46.5408 58.0986 46.7408C58.4986 46.8408 58.7987 46.8408 59.1987 46.7408C59.6987 46.4408 60.3986 46.6408 60.7986 47.0408C61.1986 47.4408 61.2986 48.1408 61.0986 48.6408C60.8986 48.9408 60.8986 49.3408 61.0986 49.7408C61.1986 50.1408 61.4987 50.3408 61.8987 50.5408C62.4987 50.7408 62.7986 51.2408 62.7986 51.8408C62.7986 52.4408 62.3987 52.9408 61.8987 53.1408ZM69.3987 3.64084C69.2987 3.74084 69.2987 3.84084 69.1987 3.94084C69.0987 4.14084 68.8986 4.44084 68.7986 4.64084C68.6986 4.74084 68.6986 4.94085 68.5986 5.04084C68.4986 5.34085 68.3986 5.54084 68.2986 5.84084C68.2986 5.94084 68.1987 6.04084 68.1987 6.24084C68.0987 6.64084 68.0986 7.04084 68.0986 7.44084V63.9408C68.0986 66.1408 66.2986 67.9408 64.0986 67.9408C63.6986 67.9408 63.1986 67.8408 62.7986 67.7408V58.3408C63.5986 57.4408 63.9987 56.2408 63.8987 55.0408C64.8987 54.2408 65.4987 53.0408 65.4987 51.8408C65.4987 50.5408 64.8987 49.3408 63.8987 48.6408C64.0987 47.3408 63.5987 46.1408 62.6987 45.2408C61.7987 44.3408 60.4986 43.9408 59.2986 44.0408C58.4986 43.0408 57.2986 42.4408 56.0986 42.4408C54.7986 42.4408 53.5987 43.0408 52.8987 44.0408C51.5987 43.8408 50.3987 44.3408 49.4987 45.2408C48.5987 46.1408 48.1986 47.4408 48.2986 48.6408C47.2986 49.4408 46.6987 50.6408 46.6987 51.8408C46.6987 53.1408 47.2986 54.3408 48.2986 55.0408C48.0986 56.2408 48.4987 57.4408 49.3987 58.3408V59.8408H14.3987V7.44084C14.3987 5.24084 16.1987 3.44084 18.3987 3.44084H69.4987C69.4987 3.44084 69.4987 3.54084 69.3987 3.64084ZM78.8987 8.84085H70.7986V7.44084C70.7986 5.24084 72.5986 3.44084 74.7986 3.44084C76.9986 3.44084 78.7986 5.24084 78.7986 7.44084V8.84085H78.8987Z" fill="#8C003D"/>
<path d="M50.6987 11.5408H45.2986V14.2408H50.6987V11.5408Z" fill="#8C003D"/>
<path d="M42.6987 11.5408H31.8987V14.2408H42.6987V11.5408Z" fill="#8C003D"/>
<path d="M54.6987 18.2408H27.7986V20.9408H54.6987V18.2408Z" fill="#8C003D"/>
<path d="M27.7986 26.3409H21.0986V29.0408H27.7986V26.3409Z" fill="#8C003D"/>
<path d="M35.8987 33.0408H21.0986V35.7408H35.8987V33.0408Z" fill="#8C003D"/>
<path d="M61.3987 26.3409H30.4987V29.0408H61.3987V26.3409Z" fill="#8C003D"/>
<path d="M61.4987 33.0408H38.5986V35.7408H61.4987V33.0408Z" fill="#8C003D"/>
<path d="M47.9987 39.7408H21.0986V42.4408H47.9987V39.7408Z" fill="#8C003D"/>
<path d="M43.9987 46.4409H21.0986V49.1409H43.9987V46.4409Z" fill="#8C003D"/>
</svg>
