<svg width="65" height="77" viewBox="0 0 65 77" fill="none" xmlns="http://www.w3.org/2000/svg">
<path d="M32.5584 41.1408H33.0584C37.5584 41.0408 41.1584 39.5408 43.8584 36.4408C49.7584 29.7408 48.8584 18.3408 48.7584 17.0408C48.3584 8.74082 44.4584 4.84082 41.3584 3.04082C38.9584 1.64082 36.1584 0.94082 33.0584 0.84082H32.7584C31.0584 0.84082 27.6584 1.14081 24.4584 2.94081C21.2584 4.74081 17.3584 8.64081 16.9584 16.9408C16.8584 18.2408 15.8584 29.7408 21.7584 36.4408C24.4584 39.5408 28.0584 41.0408 32.5584 41.1408ZM20.0584 17.3408V17.1408C20.5584 5.24081 29.1584 3.94081 32.7584 3.94081H32.9584C37.4584 4.04081 45.1584 5.94081 45.6584 17.1408V17.2408C45.6584 17.3408 46.8584 28.4408 41.5584 34.3408C39.4584 36.7408 36.5584 37.9408 32.9584 37.9408H32.7584C29.0584 37.9408 26.2584 36.7408 24.1584 34.3408C19.1584 28.8408 19.9584 18.3408 20.0584 17.3408Z" fill="#8C003D"/>
<path d="M64.9584 61.4408C64.9584 61.3408 64.9584 61.2408 64.9584 61.2408C64.9584 61.1408 64.9584 61.0408 64.9584 61.0408C64.8584 58.0408 64.6584 50.9408 58.1584 48.7408H57.9584C50.6584 46.8408 44.6584 42.6408 44.5584 42.6408C44.2584 42.4408 43.8584 42.3408 43.4584 42.3408C43.0584 42.4408 42.6584 42.6408 42.4584 42.9408C41.9584 43.6408 42.1584 44.6408 42.8584 45.1408C43.1584 45.3408 49.3584 49.6408 57.1584 51.6408C61.2584 53.1408 61.7584 57.3408 61.8584 61.1408C61.8584 61.2408 61.8584 61.3408 61.8584 61.4408C61.8584 63.0408 61.7584 65.2408 61.5584 66.5408L61.4584 66.8408L61.2584 66.9408C58.5584 68.4408 48.4584 73.5408 32.8584 73.5408C17.4584 73.5408 7.25842 68.4408 4.45842 66.9408L4.25842 66.7408L4.15842 66.4408C3.85842 65.1408 3.75842 62.8408 3.85842 61.3408C3.85842 61.2408 3.85842 61.2408 3.85842 61.1408C3.85842 61.0408 3.85842 61.0408 3.85842 60.9408C3.95842 57.1408 4.45842 52.9408 8.45842 51.4408C15.4584 49.6408 21.1584 46.0408 22.7584 44.9408L22.8584 44.8408C23.5584 44.3408 23.7584 43.4408 23.2584 42.7408C22.9584 42.3408 22.4584 42.0408 21.9584 42.0408C21.6584 42.0408 21.3584 42.1408 21.0584 42.3408C21.0584 42.3408 14.9584 46.6408 7.65842 48.4408H7.55842C1.05842 50.6408 0.858423 57.7408 0.758423 60.7408C0.758423 60.9408 0.758423 61.0408 0.758423 61.2408C0.758423 63.0408 0.858423 66.4408 1.55842 68.2408C1.65842 68.5408 1.85842 68.7408 2.15842 68.9408C2.25842 69.0408 13.6584 76.4408 32.9584 76.4408C51.3584 76.4408 62.4584 69.7408 63.7584 68.9408C64.0584 68.7408 64.2584 68.5408 64.3584 68.2408C65.0584 66.2408 64.9584 61.6408 64.9584 61.4408Z" fill="#8C003D"/>
</svg>
