<svg width="97" height="74" viewBox="0 0 97 74" fill="none" xmlns="http://www.w3.org/2000/svg">
<path d="M88.8986 22.1409C87.6986 21.8409 86.3986 21.8409 85.0986 21.9409L84.5986 22.0409L84.3986 21.5409C79.0986 9.24086 64.5986 0.940857 48.2986 0.940857C32.6986 0.940857 18.9986 9.14086 13.1986 21.7409L12.9986 22.2409L12.4986 22.1409C10.8986 21.8409 9.29861 21.8409 7.69861 22.1409C6.79861 22.3409 4.59859 22.8409 2.79859 24.6409C2.49859 24.9409 -0.401412 27.9409 0.298588 32.2409C0.898588 36.4409 4.59859 39.1409 7.79859 39.8409C8.79859 40.0409 9.8986 40.0409 10.9986 39.8409C11.0986 39.8409 11.1986 39.8409 11.2986 39.7409L11.7986 39.6409L12.0986 40.0409C12.5986 40.9409 13.5986 44.3409 10.9986 57.1409C10.9986 57.3409 10.9986 57.6409 10.9986 57.8409C12.4986 62.5409 14.6986 64.7409 18.5986 65.2409H18.6986H19.3986V65.9409V72.3409C19.3986 73.1409 19.9986 73.7409 20.7986 73.7409C21.5986 73.7409 22.1986 73.1409 22.1986 72.3409V65.3409H74.3986V72.3409C74.3986 73.1409 74.9986 73.7409 75.7986 73.7409C76.5986 73.7409 77.1986 73.1409 77.1986 72.3409V65.3409H77.9986C81.7986 64.9409 84.0986 62.6409 85.5986 57.9409C85.6986 57.7409 85.6986 57.4409 85.5986 57.2409C82.9986 44.3409 83.9986 40.9409 84.4986 40.1409L84.7986 39.7409L85.2986 39.8409C85.3986 39.8409 85.4986 39.8409 85.5986 39.9409C86.6986 40.1409 87.7986 40.2409 88.7986 39.9409C91.9986 39.2409 95.5986 36.6409 96.2986 32.3409C96.8986 28.3409 94.4986 25.5409 93.7986 24.7409C91.9986 22.8409 89.8986 22.3409 88.8986 22.1409ZM15.8986 22.8409C21.1986 11.2409 33.8986 3.74086 48.2986 3.74086C63.4986 3.74086 76.4986 11.0409 81.5986 22.2409L81.8986 22.8409L81.3986 23.1409C80.6986 23.5409 79.9986 23.9409 79.3986 24.4409C77.5986 25.7409 75.9986 27.2409 74.7986 29.0409C73.8986 30.4409 73.0986 31.9409 72.4986 33.6409C71.1986 37.1409 70.4986 41.5409 70.2986 46.8409V47.5409H26.4986V46.8409C26.3986 43.2409 25.8986 37.9409 24.2986 33.6409C23.6986 31.9409 22.8986 30.4409 21.9986 29.0409C20.6986 27.2409 19.1986 25.6409 17.3986 24.4409C16.9986 24.1409 16.5986 23.9409 16.1986 23.6409L15.6986 23.3409L15.8986 22.8409ZM93.4986 31.8409C92.9986 34.9409 90.0986 36.6409 88.2986 37.0409C87.5986 37.1409 86.8986 37.1409 86.1986 37.0409C85.5986 36.9409 84.7986 36.7409 83.7986 37.1409C80.5986 38.5409 80.3986 44.5409 82.8986 57.2409V57.4409L82.7986 57.6409C81.3986 61.7409 79.5986 62.2409 77.9986 62.4409H18.7986C17.0986 62.2409 15.1986 61.7409 13.8986 57.6409L13.7986 57.4409V57.2409C16.2986 44.5409 15.9986 38.5409 12.8986 37.1409C11.9986 36.7409 11.1986 36.8409 10.4986 37.0409C9.7986 37.2409 9.09862 37.2409 8.39862 37.0409C6.79862 36.7409 3.69861 35.1409 3.19861 31.8409C2.79861 29.5409 3.99861 27.7409 4.69861 26.9409L4.89862 26.7409C6.09862 25.5409 7.59862 25.1409 8.39862 25.0409C9.59862 24.7409 10.7986 24.7409 11.9986 25.0409C13.4986 25.3409 14.3986 26.0409 15.5986 26.8409L15.6986 26.9409C17.2986 28.0409 18.5986 29.3409 19.5986 30.8409C20.3986 32.0409 20.9986 33.3409 21.4986 34.7409C23.2986 39.7409 23.4986 45.8409 23.4986 49.0409C23.4986 49.8409 24.0986 50.4409 24.8986 50.4409H71.4986C72.2986 50.4409 72.8986 49.8409 72.8986 49.0409C72.8986 45.8409 73.1986 39.6409 74.8986 34.6409C75.3986 33.2409 76.0986 31.9409 76.7986 30.7409C77.8986 29.1409 79.1986 27.8409 80.6986 26.8409C81.8986 26.0409 82.8986 25.3409 84.3986 24.9409C85.5986 24.6409 86.7986 24.6409 87.9986 24.9409C88.7986 25.1409 90.2986 25.4409 91.4986 26.6409C91.8986 26.7409 93.9986 28.9409 93.4986 31.8409Z" fill="#8C003D"/>
</svg>
