<svg width="83" height="83" viewBox="0 0 83 83" fill="none" xmlns="http://www.w3.org/2000/svg">
<path d="M65.1585 31.5408C64.7585 31.1408 64.2585 31.0408 63.7585 31.2408L52.1585 35.1408C51.7585 35.2408 51.4585 35.6408 51.2585 36.0408L47.5585 47.0408L36.5585 50.7408C36.1585 50.8408 35.8585 51.2408 35.6585 51.6408L31.7585 63.2408C31.5585 63.7408 31.7585 64.2408 32.0585 64.6408L49.5585 82.1408C50.0585 82.6408 50.9585 82.6408 51.4585 82.1408L82.4585 51.1408C82.9585 50.6408 82.9585 49.7408 82.4585 49.2408L65.1585 31.5408ZM50.6585 79.0408L34.7585 63.1408L38.1585 52.9409L49.1585 49.2408C49.5585 49.1408 49.8585 48.7408 50.0585 48.3408L53.7585 37.3408L63.9585 33.9409L79.8585 49.8408L50.6585 79.0408Z" fill="#8C003D"/>
<path d="M43.2585 43.5408C43.6585 43.4408 43.9585 43.0408 44.1585 42.6408L47.8585 31.6408L58.8585 27.9408C59.2585 27.7408 59.6585 27.4408 59.7585 26.9408C59.8585 26.4408 59.7585 26.0408 59.3585 25.6408L34.1585 0.440846C33.7585 0.0408461 33.2585 -0.0591722 32.7585 0.140828L10.2585 7.64083L3.25846 0.640828C2.75846 0.140828 1.85846 0.140828 1.35846 0.640828C0.85846 1.14083 0.85846 2.04082 1.35846 2.54082L8.35846 9.54082L0.85846 32.0408C0.65846 32.5408 0.85846 33.0408 1.15846 33.4408L26.3585 58.6408C26.6585 58.9408 26.9585 59.0408 27.3585 59.0408C27.4585 59.0408 27.5585 59.0408 27.6585 59.0408C28.1585 58.9408 28.4585 58.5408 28.6585 58.1408L32.3585 47.1408L43.2585 43.5408ZM29.9585 45.6408L26.7585 55.1408L3.75846 32.1408L10.4585 11.7408L15.7585 17.0408C13.8585 19.9408 14.4585 23.9408 17.1585 26.1408C19.8585 28.3408 23.8585 28.1408 26.3585 25.6408C28.8585 23.1408 29.0585 19.1408 26.8585 16.4408C24.6585 13.7408 20.6585 13.1408 17.7585 15.0408L12.4585 9.74083L32.8585 2.94085L55.8585 25.9408L46.3585 29.1408C45.9585 29.2408 45.6585 29.6408 45.4585 30.0408L41.7585 41.0408L30.7585 44.7408C30.3585 44.9408 30.0585 45.2408 29.9585 45.6408ZM20.5585 21.8408C21.0585 22.3408 21.9585 22.3408 22.4585 21.8408C22.9585 21.3408 22.9585 20.4408 22.4585 19.9408L19.7585 17.2408C21.5585 16.3408 23.7585 16.9408 24.8585 18.5408C26.0585 20.1408 25.8585 22.4408 24.3585 23.8408C22.7585 25.4408 20.1585 25.4408 18.5585 23.8408C17.3585 22.6408 16.9585 20.7408 17.7585 19.1408L20.5585 21.8408Z" fill="#8C003D"/>
</svg>
