<svg width="92" height="62" viewBox="0 0 92 62" fill="none" xmlns="http://www.w3.org/2000/svg">
<path d="M29.4985 45.9409C27.3985 45.9409 25.2985 46.7408 23.7985 48.2408C22.2985 49.7408 21.3986 51.7409 21.3986 53.8409C21.3986 55.9409 22.1985 57.9409 23.7985 59.4409C25.2985 60.9409 27.3985 61.7408 29.4985 61.7408C33.8985 61.7408 37.3986 58.1408 37.3986 53.7408C37.3986 49.4408 33.7985 45.9409 29.4985 45.9409ZM29.4985 58.9409C26.6985 58.9409 24.3986 56.6409 24.3986 53.9409C24.3986 51.2409 26.6985 48.9409 29.4985 48.9409C32.1985 48.9409 34.4985 51.2409 34.4985 53.9409C34.4985 56.6409 32.1985 58.9409 29.4985 58.9409Z" fill="#8C003D"/>
<path d="M17.0985 48.1408H12.9985V42.8409C12.9985 42.0409 12.2985 41.3409 11.4985 41.3409C10.6985 41.3409 9.99854 42.0409 9.99854 42.8409V49.6408C9.99854 50.4408 10.6985 51.1408 11.4985 51.1408H17.0985C17.8985 51.1408 18.5985 50.4408 18.5985 49.6408C18.4985 48.8408 17.8985 48.1408 17.0985 48.1408Z" fill="#8C003D"/>
<path d="M9.59851 22.1408H32.0985C32.8985 22.1408 33.5985 21.4408 33.5985 20.6408C33.5985 19.8408 32.8985 19.1408 32.0985 19.1408H9.59851C8.79851 19.1408 8.09851 19.8408 8.09851 20.6408C8.19851 21.4408 8.79851 22.1408 9.59851 22.1408Z" fill="#8C003D"/>
<path d="M5.89856 30.5408L28.3986 30.6408C29.1986 30.6408 29.8986 29.9408 29.8986 29.1408C29.8986 28.7408 29.7985 28.3408 29.4985 28.0408C29.1985 27.7408 28.8985 27.6408 28.4985 27.6408L5.99854 27.5408C5.19854 27.5408 4.49854 28.2408 4.49854 29.0408C4.49854 29.4408 4.59856 29.8408 4.89856 30.1408C5.09856 30.4408 5.49856 30.5408 5.89856 30.5408Z" fill="#8C003D"/>
<path d="M26.0985 37.6408C26.0985 36.8408 25.3985 36.1408 24.5985 36.1408H2.09851C1.29851 36.1408 0.598511 36.8408 0.598511 37.6408C0.598511 38.4408 1.29851 39.1408 2.09851 39.1408H24.5985C25.3985 39.1408 26.0985 38.5408 26.0985 37.6408Z" fill="#8C003D"/>
<path d="M90.5985 20.3409L77.2985 9.34085C76.9985 9.14085 76.6986 9.04083 76.3986 9.04083H60.3986V1.94086C60.3986 1.14086 59.6986 0.440857 58.8986 0.440857H11.5985C10.7985 0.440857 10.0985 1.14086 10.0985 1.94086V15.5408C10.0985 16.3408 10.7985 17.0408 11.5985 17.0408C12.3985 17.0408 13.0985 16.3408 13.0985 15.5408V3.44086H57.4985V48.2408H41.8986C41.0986 48.2408 40.3986 48.9408 40.3986 49.7408C40.3986 50.5408 41.0986 51.2408 41.8986 51.2408H64.5985C65.3985 51.2408 66.0985 50.5408 66.0985 49.7408C66.0985 48.9408 65.3985 48.2408 64.5985 48.2408H60.4985V11.9409H75.9985L88.3986 22.1408L88.2985 48.1408H85.9985C85.1985 48.1408 84.4985 48.8408 84.4985 49.6408C84.4985 50.4408 85.1985 51.1408 85.9985 51.1408H89.7985C90.5985 51.1408 91.2985 50.4408 91.2985 49.6408L91.3986 21.4409C91.0986 21.0409 90.8985 20.5409 90.5985 20.3409Z" fill="#8C003D"/>
<path d="M74.7985 45.9409C72.6985 45.9409 70.5985 46.7408 69.0985 48.2408C67.5985 49.7408 66.6985 51.7409 66.6985 53.8409C66.6985 55.9409 67.4985 57.9409 69.0985 59.4409C70.5985 60.9409 72.6985 61.7408 74.7985 61.7408C79.1985 61.7408 82.6985 58.1408 82.6985 53.7408C82.7985 49.4408 79.1985 45.9409 74.7985 45.9409ZM74.7985 58.9409C71.9985 58.9409 69.6985 56.6409 69.6985 53.9409C69.6985 51.2409 71.9985 48.9409 74.7985 48.9409C77.4985 48.9409 79.7985 51.2409 79.7985 53.9409C79.7985 56.6409 77.5985 58.9409 74.7985 58.9409Z" fill="#8C003D"/>
<path d="M76.6985 17.9409C76.3985 17.7409 76.0985 17.5408 75.6985 17.5408H66.1985C65.3985 17.5408 64.6985 18.2408 64.6985 19.0408V34.2408C64.6985 35.0408 65.3985 35.7408 66.1985 35.7408H81.2985C82.0985 35.7408 82.7985 35.0408 82.7985 34.2408V24.0408C82.7985 23.6408 82.5985 23.2409 82.2985 22.9409L76.6985 17.9409ZM79.8986 32.8409H67.6985V20.5408H75.1985L79.8986 24.7408V32.8409Z" fill="#8C003D"/>
</svg>
