<svg width="43" height="66" viewBox="0 0 43 66" fill="none" xmlns="http://www.w3.org/2000/svg">
<path d="M33.8 18.2061C34.1 18.2061 34.3 18.2061 34.6 18.1061C35.9 17.9061 37.1 17.2061 37.9 16.1061L42.7 9.60608C42.8 9.30608 42.8 8.90608 42.7 8.60608C42.6 8.30608 42.3 8.10608 42 8.00608C41.9 8.00608 40.1 7.70608 37.8 7.70608C37.1 5.50608 36.2 3.90608 36.2 3.80608C36 3.50608 35.8 3.30608 35.4 3.30608C35.1 3.30608 34.8 3.40608 34.6 3.70608L29.7 10.2061C28.9 11.3061 28.6 12.6061 28.8 13.9061C29 14.9061 29.4 15.8061 30 16.5061C29.3 17.4061 28 18.9061 26.6 20.8061V20.0061C26.6 19.5061 26.2 19.1061 25.7 19.1061C25.2 19.1061 24.8 19.5061 24.8 20.0061V23.6061C24 24.8061 23.3 26.0061 22.6 27.3061V22.0061V20.4061L25.4 17.6061C25.8 17.2061 25.8 16.6061 25.4 16.3061C25 15.9061 24.4 15.9061 24.1 16.3061L22.7 17.8061V14.9061C25 14.5061 26.7 12.4061 26.7 10.0061V1.80608C26.7 1.50608 26.5 1.20608 26.3 1.00608C26 0.806079 25.7 0.806079 25.4 1.00608C25.3 1.00608 23.6 1.90608 21.8 3.20608C19.9 1.90608 18.3 1.00608 18.2 1.00608C17.9 0.906079 17.6 0.906079 17.3 1.00608C16.9 1.20608 16.7 1.50608 16.7 1.80608V9.90608C16.7 12.3061 18.4 14.4061 20.7 14.8061V19.7061L18.3 17.3061C17.9 16.9061 17.3 16.9061 17 17.3061C16.6 17.7061 16.6 18.3061 17 18.6061L20.8 22.4061V27.3061C18.4 22.6061 14.8 18.1061 13.4 16.4061C14 15.7061 14.5 14.8061 14.6 13.8061C14.8 12.5061 14.5 11.2061 13.7 10.1061L9 3.70608C8.8 3.40608 8.4 3.30608 8.1 3.30608C7.8 3.30608 7.5 3.50608 7.3 3.80608C7.3 3.90608 6.4 5.60608 5.7 7.70608C3.4 7.70608 1.6 8.00608 1.5 8.00608C1.2 8.10608 0.899996 8.30608 0.799996 8.60608C0.599996 8.90608 0.699996 9.30608 0.899996 9.60608L5.7 16.1061C6.5 17.2061 7.6 17.9061 9 18.1061C9.3 18.1061 9.5 18.2061 9.8 18.2061C10.6 18.2061 11.3 18.0061 12 17.7061C12.3 18.0061 12.7 18.5061 13.2 19.1061H12.4C11.9 19.1061 11.5 19.5061 11.5 20.0061C11.5 20.5061 11.9 20.9061 12.4 20.9061H14.7C16.1 22.8061 17.7 25.1061 19 27.5061C17.5 26.0061 15.8 24.6061 13.9 23.4061C8 19.9061 2.9 19.1061 2.7 19.1061C2.4 19.1061 2.2 19.1061 1.9 19.3061C1.7 19.5061 1.6 19.7061 1.6 20.0061C1.6 20.2061 1.6 23.8061 3.4 28.8061C5 33.4061 8.5 40.0061 15.7 45.8061V49.3061L11.7 64.3061C11.6 64.6061 11.7 64.9061 11.9 65.1061C12.1 65.3061 12.4 65.5061 12.7 65.5061H30.9C31.2 65.5061 31.5 65.4061 31.7 65.1061C31.9 64.9061 31.9 64.6061 31.9 64.3061L27.9 49.3061V45.8061C35.1 40.0061 38.6 33.4061 40.2 28.9061C42 23.9061 42 20.3061 42 20.1061C42 19.8061 41.9 19.6061 41.7 19.4061C41.5 19.2061 41.2 19.1061 40.9 19.2061C40.8 19.2061 37.8 19.7061 33.9 21.5061C31.3 22.7061 28 24.6061 24.8 27.7061C26.1 25.3061 27.7 22.9061 29.1 21.1061H31.4C31.9 21.1061 32.3 20.7061 32.3 20.2061C32.3 19.7061 31.9 19.3061 31.4 19.3061H30.6C31.1 18.7061 31.5 18.2061 31.8 17.9061C32.3 18.0061 33 18.2061 33.8 18.2061ZM40.1 9.70608L38.7 11.7061C38.6 11.1061 38.5 10.4061 38.3 9.60608C39 9.60608 39.6 9.70608 40.1 9.70608ZM4.8 11.7061L3.4 9.70608C3.9 9.70608 4.5 9.60608 5.2 9.60608C5 10.4061 4.8 11.1061 4.8 11.7061ZM11.5 15.7061C10.8 16.2061 10 16.4061 9.2 16.3061C8.4 16.2061 7.7 15.7061 7.2 15.1061C5.8 13.2061 7.3 8.80608 8.4 6.20608L12.2 11.4061C13.2 12.7061 12.9 14.7061 11.5 15.7061ZM24.8 3.50608V5.90608C24.4 5.40608 23.9 4.90608 23.3 4.40608C23.9 4.00608 24.4 3.70608 24.8 3.50608ZM18.6 9.90608V3.40608C21.1 4.90608 24.8 7.60608 24.8 9.90608C24.8 11.6061 23.4 13.0061 21.7 13.0061C20 13.0061 18.6 11.6061 18.6 9.90608ZM5.2 28.3061C4.1 25.2061 3.7 22.7061 3.5 21.3061C5.3 21.7061 8.8 22.8061 12.6 25.2061C15.7 27.2061 18.4 29.7061 20.5 32.6061C23 35.9061 24.7 39.9061 25.6 44.4061H23.4C22.2 39.1061 19.8 34.6061 16.3 31.0061C15.9 30.6061 15.3 30.6061 15 31.0061C14.6 31.4061 14.6 32.0061 15 32.3061C18.2 35.6061 20.3 39.6061 21.5 44.4061H17C10.1 38.8061 6.8 32.6061 5.2 28.3061ZM25.8 46.3061V48.5061H17.6V46.3061H25.8ZM29.6 63.6061H25.6L25.4 62.4061C25.3 61.9061 24.9 61.5061 24.3 61.6061C23.8 61.7061 23.4 62.1061 23.5 62.7061L23.6 63.7061H13.8L17.3 50.4061H21.8L22.9 58.7061C23 59.2061 23.4 59.5061 23.8 59.5061H23.9C24.4 59.4061 24.8 59.0061 24.7 58.4061L23.6 50.4061H25.8L29.6 63.6061ZM34.5 23.1061C36.8 22.0061 38.8 21.5061 39.9 21.2061C39.8 22.6061 39.4 25.2061 38.2 28.2061C36.7 32.3061 33.6 38.2061 27.3 43.5061C26.4 39.4061 24.9 35.8061 22.8 32.5061C26.5 27.6061 31.2 24.7061 34.5 23.1061ZM31.3 11.3061L35.1 6.10608C36.2 8.70608 37.7 13.1061 36.3 15.0061C35.8 15.7061 35.1 16.1061 34.3 16.2061C33.5 16.3061 32.7 16.1061 32 15.6061C30.6 14.7061 30.3 12.7061 31.3 11.3061Z" fill="#8C003D"/>
<path d="M13.2 28.2061C12.5 27.7061 11.8 27.2061 11.1 26.8061C10.7 26.5061 10.1 26.7061 9.79999 27.1061C9.49999 27.5061 9.69999 28.1061 10.1 28.4061C10.8 28.8061 11.4 29.3061 12 29.7061C12.2 29.8061 12.4 29.9061 12.6 29.9061C12.9 29.9061 13.2 29.8061 13.4 29.5061C13.7 29.1061 13.6 28.5061 13.2 28.2061Z" fill="#8C003D"/>
</svg>
