<svg width="60" height="66" viewBox="0 0 60 56" fill="none" xmlns="http://www.w3.org/2000/svg">
<path d="M10.3 23.7061H23.2C23.7 23.7061 24.2 23.3061 24.2 22.7061C24.2 22.2061 23.8 21.7061 23.2 21.7061H10.3C9.80005 21.7061 9.30005 22.1061 9.30005 22.7061C9.30005 23.3061 9.70005 23.7061 10.3 23.7061Z" fill="#8C003D"/>
<path d="M36 27.7061H10.2C9.70004 27.7061 9.20004 28.1061 9.20004 28.7061C9.20004 29.2061 9.60004 29.7061 10.2 29.7061H36C36.5 29.7061 37 29.3061 37 28.7061C37 28.1061 36.5 27.7061 36 27.7061Z" fill="#8C003D"/>
<path d="M36 33.6061H10.2C9.70004 33.6061 9.20004 34.0061 9.20004 34.6061C9.20004 35.1061 9.60004 35.6061 10.2 35.6061H36C36.5 35.6061 37 35.2061 37 34.6061C37 34.0061 36.5 33.6061 36 33.6061Z" fill="#8C003D"/>
<path d="M53.9 1.00607L20.1 0.906067C16.9 0.906067 14.2 3.50607 14.2 6.80607V11.9061H6.20004C3.00004 11.9061 0.300049 14.5061 0.300049 17.8061V38.7061C0.300049 41.9061 2.90004 44.6061 6.20004 44.6061H12.2V54.5061C12.2 54.9061 12.5 55.3061 12.8 55.4061C12.9 55.4061 13 55.5061 13.2 55.5061C13.5 55.5061 13.7 55.4061 13.9 55.2061L23.5 44.6061L40 44.5061C43.2 44.5061 45.9 41.9061 45.9 38.6061V38.5061L51.1 44.2061C51.3 44.4061 51.6 44.5061 51.8 44.5061C51.9 44.5061 52 44.5061 52.2 44.4061C52.6 44.3061 52.8 43.9061 52.8 43.5061V33.6061H53.9C57.1 33.6061 59.8 31.0061 59.8 27.7061V6.90607C59.8 3.60607 57.1 1.00607 53.9 1.00607ZM43.9 38.6061C43.9 40.7061 42.2 42.5061 40 42.5061L23.1 42.6061C22.8 42.6061 22.6 42.7061 22.4 42.9061L14.2 51.9061V43.6061C14.2 43.1061 13.8 42.6061 13.2 42.6061H6.20004C4.00004 42.6061 2.30005 40.9061 2.30005 38.7061V17.8061C2.30005 15.7061 4.00004 13.9061 6.20004 13.9061H15.2L40 13.8061C42.2 13.8061 43.9 15.5061 43.9 17.7061V38.6061ZM57.8 27.8061C57.8 29.9061 56.1 31.7061 53.9 31.7061H51.9C51.4 31.7061 50.9 32.1061 50.9 32.7061V41.0061L45.9 35.6061V17.7061C45.9 14.5061 43.3 11.8061 40 11.8061L16.2 11.9061V6.80607C16.2 4.70607 17.9 2.90607 20.1 2.90607L53.9 3.00607C56 3.00607 57.8 4.70607 57.8 6.90607V27.8061Z" fill="#8C003D"/>
</svg>
