<svg width="45" height="66" viewBox="0 0 45 65" fill="none" xmlns="http://www.w3.org/2000/svg">
<path d="M21.6 48.3061C22 48.7061 22.8 48.7061 23.3 48.3061L30.1 41.5061C31.2 40.4061 31.8 38.9061 31.9 37.3061C31.9 35.7061 31.3 34.2061 30.1 33.1061C28.2 31.2061 25.2 30.8061 22.8 32.2061L22.4 32.4061L22 32.2061C21.1 31.6061 20 31.4061 19 31.4061C17.5 31.4061 15.9 32.0061 14.8 33.2061C13.7 34.3061 13.1 35.8061 13 37.4061C13 39.0061 13.6 40.5061 14.8 41.6061L21.6 48.3061ZM16.4 34.7061C17.8 33.3061 20.1 33.3061 21.6 34.7061C22 35.1061 22.8 35.1061 23.3 34.7061C24.7 33.3061 27 33.3061 28.5 34.7061C29.2 35.4061 29.6 36.3061 29.6 37.3061C29.6 38.3061 29.2 39.2061 28.5 39.9061L22.5 45.9061L16.5 39.9061C15.8 39.2061 15.4 38.3061 15.4 37.3061C15.3 36.3061 15.7 35.4061 16.4 34.7061Z" fill="#8C003D"/>
<path d="M42.9 12.8061H35.9V1.70607C35.9 1.30607 35.7 1.00607 35.4 0.706073C35.2 0.606073 35 0.506073 34.7 0.506073C34.6 0.506073 34.4 0.506073 34.3 0.606073L1.39999 12.9061C0.899994 13.1061 0.599976 13.5061 0.599976 14.0061V63.3061C0.599976 63.9061 1.09999 64.5061 1.79999 64.5061H42.9C43.5 64.5061 44.1 64.0061 44.1 63.3061V14.0061C44.1 13.3061 43.6 12.8061 42.9 12.8061ZM33.6 3.30607V12.8061H8.29999L33.6 3.30607ZM41.8 62.1061H2.99997V15.1061H41.8V62.1061Z" fill="#8C003D"/>
</svg>
