<svg width="72" height="66" viewBox="0 0 72 49" fill="none" xmlns="http://www.w3.org/2000/svg">
<path d="M23.2 36.0061C21.5 36.0061 19.9 36.7061 18.7 37.9061C17.5 39.1061 16.8 40.7061 16.8 42.4061C16.8 44.1061 17.5 45.7061 18.7 46.9061C19.9 48.1061 21.5 48.8061 23.2 48.8061C26.7 48.8061 29.5 46.0061 29.5 42.5061C29.5 39.0061 26.6 36.0061 23.2 36.0061ZM23.2 46.3061C21 46.3061 19.2 44.5061 19.2 42.3061C19.2 40.1061 21 38.3061 23.2 38.3061C25.4 38.3061 27.1 40.1061 27.1 42.3061C27.1 44.5061 25.3 46.3061 23.2 46.3061Z" fill="#8C003D"/>
<path d="M13.4001 37.8061H10.1V33.6061C10.1 33.0061 9.60005 32.4061 8.90005 32.4061C8.30005 32.4061 7.70004 32.9061 7.70004 33.6061V39.0061C7.70004 39.6061 8.20005 40.2061 8.90005 40.2061H13.3C13.9 40.2061 14.5 39.7061 14.5 39.0061C14.5 38.3061 14.0001 37.8061 13.4001 37.8061Z" fill="#8C003D"/>
<path d="M7.50003 17.2061H25.3C25.9 17.2061 26.5 16.7061 26.5 16.0061C26.5 15.3061 26 14.8061 25.3 14.8061H7.50003C6.90003 14.8061 6.30005 15.3061 6.30005 16.0061C6.30005 16.7061 6.90003 17.2061 7.50003 17.2061Z" fill="#8C003D"/>
<path d="M4.50003 23.9061L22.3 24.0061C22.9 24.0061 23.5 23.5061 23.5 22.8061C23.5 22.5061 23.4 22.2061 23.2 22.0061C23 21.8061 22.7001 21.7061 22.4001 21.7061L4.60004 21.6061C3.90004 21.6061 3.40005 22.1061 3.40005 22.8061C3.40005 23.1061 3.50004 23.4061 3.70004 23.6061C3.90004 23.8061 4.20003 23.9061 4.50003 23.9061Z" fill="#8C003D"/>
<path d="M20.5 29.5061C20.5 28.9061 20 28.3061 19.3 28.3061H1.50003C0.90003 28.3061 0.300049 28.8061 0.300049 29.5061C0.300049 30.2061 0.800031 30.7061 1.50003 30.7061H19.3C20 30.7061 20.5 30.1061 20.5 29.5061Z" fill="#8C003D"/>
<path d="M71.5 15.8061L61 7.10607C60.8 6.90607 60.5 6.80607 60.2 6.80607H47.5V1.20607C47.5 0.606073 47 0.006073 46.3 0.006073H8.80005C8.20005 0.006073 7.60004 0.506073 7.60004 1.20607V11.9061C7.60004 12.5061 8.10005 13.1061 8.80005 13.1061C9.40005 13.1061 10 12.6061 10 11.9061V2.30607H45.1V37.8061H32.7C32.1 37.8061 31.5 38.3061 31.5 39.0061C31.5 39.7061 32 40.2061 32.7 40.2061H50.7C51.3 40.2061 51.9001 39.7061 51.9001 39.0061C51.9001 38.3061 51.4 37.8061 50.7 37.8061H47.4001V9.10607H59.7L69.5 17.2061L69.4001 37.8061H67.7C67.1 37.8061 66.5 38.3061 66.5 39.0061C66.5 39.7061 67 40.2061 67.7 40.2061H70.7C71.3 40.2061 71.9001 39.7061 71.9001 39.0061L72 16.7061C72 16.3061 71.8 16.0061 71.5 15.8061Z" fill="#8C003D"/>
<path d="M59.1 36.0061C57.4 36.0061 55.8 36.7061 54.6 37.9061C53.4 39.1061 52.7 40.7061 52.7 42.4061C52.7 44.1061 53.4 45.7061 54.6 46.9061C55.8 48.1061 57.4 48.8061 59.1 48.8061C62.6 48.8061 65.4001 46.0061 65.4001 42.5061C65.4001 39.0061 62.5 36.0061 59.1 36.0061ZM59.1 46.3061C56.9 46.3061 55.1 44.5061 55.1 42.3061C55.1 40.1061 56.9 38.3061 59.1 38.3061C61.3 38.3061 63 40.1061 63 42.3061C63 44.5061 61.3 46.3061 59.1 46.3061Z" fill="#8C003D"/>
<path d="M60.6 13.9061C60.4 13.7061 60.1 13.6061 59.8 13.6061H52.3C51.7 13.6061 51.1 14.1061 51.1 14.8061V26.9061C51.1 27.5061 51.6 28.1061 52.3 28.1061H64.3C64.9 28.1061 65.5 27.6061 65.5 26.9061V18.8061C65.5 18.5061 65.4 18.2061 65.1 17.9061L60.6 13.9061ZM63.1 25.6061H53.5V15.9061H59.4001L63.1 19.2061V25.6061Z" fill="#8C003D"/>
</svg>
