<svg width="292" height="54" viewBox="0 0 292 54" fill="none" xmlns="http://www.w3.org/2000/svg">
<g clip-path="url(#clip0)">
<path d="M292 0.700012H0V53.7H292V0.700012Z" fill="#DDAF73"/>
<path d="M49.1 20.6H43.2C43.6 20.3 44 20 44.2 19.8C45.7 18.3 45.7 15.8 44.2 14.3C42.7 12.8 40.2 12.8 38.7 14.3C37.9 15.1 35.7 18.4 36 20.6H35.9C36.2 18.4 34 15.1 33.2 14.3C31.7 12.8 29.2 12.8 27.7 14.3C26.2 15.8 26.2 18.3 27.7 19.8C28 20.1 28.3 20.3 28.7 20.6H22.8C21.8 20.6 20.9 21.4 20.9 22.5V27.2C20.9 27.7 21.3 28.1 21.8 28.1H22.7V39.3C22.7 40.3 23.5 41.2 24.6 41.2H47C48 41.2 48.9 40.4 48.9 39.3V28.1H50C50.5 28.1 50.9 27.7 50.9 27.2V22.5C50.9 21.5 50.1 20.6 49.1 20.6ZM38 20.6C37.6 20.1 38.8 16.9 40.1 15.6C40.9 14.8 42.2 14.8 42.9 15.6C43.7 16.4 43.7 17.7 42.9 18.5C42.1 19.3 39.6 20.7 38.3 20.7C38.1 20.6 38 20.6 38 20.6ZM29.1 18.5C28.3 17.7 28.3 16.4 29.1 15.6C29.5 15.2 30 15 30.5 15C31 15 31.5 15.2 31.9 15.6C33.2 16.9 34.4 20.1 34 20.6C34 20.6 33.9 20.7 33.7 20.7C32.4 20.6 29.9 19.3 29.1 18.5ZM22.9 22.5H33.7H35.1V26.2H22.9V22.5ZM24.8 28.1H35.1V39.3H24.8V28.1ZM47.2 39.3H36.9V28.1H47.2V39.3ZM49.1 26.2H36.9V22.5H38.3H49.1V26.2Z" fill="white"/>
</g>
<defs>
<clipPath id="clip0">
<rect width="292" height="53" fill="white" transform="translate(0 0.700012)"/>
</clipPath>
</defs>
</svg>
