<svg width="147" height="44" viewBox="0 0 147 44" fill="none" xmlns="http://www.w3.org/2000/svg">
<path d="M23.4 29.7V22.5H8.5V0H0V29.7H8.1V36.8H0V43.9H23.4V36.8H15.3V29.7H23.4Z" fill="#DDAF73"/>
<path d="M36.5 3.2C36.6 3.4 36.6 3.5 36.5 3.6L35.1 4.7C34.9 4.9 34.8 4.8 34.7 4.7C33.8 3.5 32.8 2.9 31.3 2.9C29.1 2.9 27.7 4.4 27.7 6.6C27.7 8.8 29.2 10.4 31.3 10.4C32.8 10.4 33.9 9.90001 34.8 8.60001C34.9 8.50001 35 8.50001 35.2 8.60001L36.6 9.7C36.7 9.8 36.7 9.90001 36.6 10.1C35.5 11.9 33.6 12.9 31.4 12.9C27.9 12.9 25.2 10.2 25.2 6.7C25.2 3.2 27.9 0.600005 31.4 0.600005C33.4 0.400005 35.5 1.4 36.5 3.2Z" fill="#333333"/>
<path d="M53.4 0.600006C53.6 0.600006 53.7 0.700006 53.7 0.900006V2.70001C53.7 2.90001 53.6 3.00001 53.4 3.00001H46.7V5.20001H52.5C52.7 5.20001 52.8 5.30001 52.8 5.50001V7.30001C52.8 7.50001 52.7 7.60001 52.5 7.60001H46.7V10.2H53.5C53.7 10.2 53.8 10.3 53.8 10.5V12.3C53.8 12.5 53.7 12.6 53.5 12.6H44.4C44.2 12.6 44.1 12.5 44.1 12.3V0.900006C44.1 0.700006 44.3 0.600006 44.4 0.600006H53.4Z" fill="#333333"/>
<path d="M64 0.600006C64.2 0.600006 64.3 0.700006 64.3 0.900006V5.10001H69.8V0.900006C69.8 0.700006 69.9 0.600006 70.1 0.600006H72C72.2 0.600006 72.3 0.700006 72.3 0.900006V12.3C72.3 12.5 72.2 12.6 72 12.6H70.1C69.9 12.6 69.8 12.5 69.8 12.3V7.60001H64.3V12.3C64.3 12.5 64.2 12.6 64 12.6H62.1C61.9 12.6 61.8 12.5 61.8 12.3V0.900006C61.8 0.700006 61.9 0.600006 62.1 0.600006H64Z" fill="#333333"/>
<path d="M89.6 10.2H83.6L82.8 12.3C82.7 12.5 82.6 12.6 82.4 12.6H80.2C80 12.6 79.9 12.5 80 12.3L85.2 0.800006C85.2 0.700006 85.3 0.600006 85.5 0.600006H88C88.2 0.600006 88.2 0.700006 88.3 0.800006L93.2 12.3C93.3 12.5 93.2 12.7 93 12.7H90.9C90.7 12.7 90.5 12.6 90.4 12.4L89.6 10.2ZM84.5 7.90001H88.7L86.7 3.00001H86.5L84.5 7.90001Z" fill="#333333"/>
<path d="M109.1 0.600006C109.3 0.600006 109.4 0.700006 109.4 0.900006V2.70001C109.4 2.90001 109.3 3.00001 109.1 3.00001H105.3V12.3C105.3 12.5 105.2 12.6 105 12.6H103C102.8 12.6 102.7 12.5 102.7 12.3V3.00001H98.9C98.7 3.00001 98.6 2.90001 98.6 2.70001V0.900006C98.6 0.700006 98.7 0.600006 98.9 0.600006H109.1Z" fill="#333333"/>
<path d="M121.9 0.399994C125.4 0.399994 128.2 3.09999 128.2 6.59999C128.2 10.1 125.4 12.8 121.9 12.8C118.4 12.8 115.6 10.2 115.6 6.59999C115.6 3.09999 118.4 0.399994 121.9 0.399994ZM118.1 6.59999C118.1 8.79999 119.6 10.4 121.8 10.4C124 10.4 125.5 8.79999 125.5 6.59999C125.5 4.39999 124 2.79999 121.8 2.79999C119.7 2.79999 118.1 4.39999 118.1 6.59999Z" fill="#333333"/>
<path d="M141.6 0.600006C144.3 0.600006 146.3 2.50001 146.3 5.00001C146.3 7.60001 144.3 9.40001 141.6 9.40001H138.4V12.3C138.4 12.5 138.3 12.6 138.1 12.6H136.2C136 12.6 135.9 12.5 135.9 12.3V0.900006C135.9 0.700006 136 0.600006 136.2 0.600006H141.6ZM141.6 7.00001C142.9 7.00001 143.7 6.20001 143.7 5.00001C143.7 3.90001 142.9 3.00001 141.6 3.00001H138.4V7.00001H141.6Z" fill="#333333"/>
<path d="M35.4 23.2C35.9 22.7 36.5 22.5 37.2 22.5C37.9 22.5 38.6 22.7 39 23.2C39.5 23.7 39.7 24.3 39.7 24.9C39.7 25.6 39.5 26.2 39 26.6C38.5 27.1 37.9 27.3 37.2 27.3C36.5 27.3 35.9 27.1 35.4 26.6C34.9 26.1 34.7 25.5 34.7 24.9C34.6 24.2 34.9 23.7 35.4 23.2ZM39 24.9C39 24.4 38.8 23.9 38.5 23.6C38.2 23.3 37.7 23.1 37.2 23.1C36.7 23.1 36.2 23.3 35.9 23.6C35.6 24 35.4 24.4 35.4 24.9C35.4 25.4 35.6 25.8 35.9 26.2C36.2 26.5 36.7 26.7 37.2 26.7C37.7 26.7 38.2 26.5 38.5 26.2C38.8 25.9 39 25.4 39 24.9Z" fill="#333333"/>
<path d="M45.8 22.5V20.5H46.5V22.5C47.3 22.5 48 22.7 48.5 23.2C49 23.6 49.2 24.2 49.2 24.9C49.2 25.6 49 26.2 48.5 26.6C48 27 47.4 27.3 46.5 27.3V29.2H45.8V27.3C45 27.3 44.3 27.1 43.8 26.6C43.3 26.2 43.1 25.6 43.1 24.9C43.1 24.2 43.3 23.6 43.8 23.2C44.3 22.8 45 22.5 45.8 22.5ZM45.8 26.7V23.1C45.2 23.1 44.7 23.3 44.4 23.6C44 23.9 43.8 24.4 43.8 24.9C43.8 25.5 44 25.9 44.4 26.2C44.7 26.6 45.2 26.7 45.8 26.7ZM46.5 23.1V26.7C47.1 26.7 47.6 26.5 47.9 26.2C48.3 25.9 48.5 25.4 48.5 24.9C48.5 24.3 48.3 23.9 47.9 23.6C47.6 23.3 47.1 23.1 46.5 23.1Z" fill="#333333"/>
<path d="M53.6 27.3H52.9V22.6H53.6V26.3L56.6 22.6H57.3V27.3H56.6V23.6L53.6 27.3Z" fill="#333333"/>
<path d="M63.5 27.4C62.8 27.4 62.2 27.2 61.7 26.7C61.2 26.2 61 25.6 61 24.9C61 24.2 61.2 23.6 61.7 23.2C62.2 22.7 62.8 22.5 63.5 22.5C64 22.5 64.5 22.6 64.9 22.8V23.5C64.5 23.3 64 23.1 63.6 23.1C63.1 23.1 62.6 23.3 62.3 23.6C61.9 23.9 61.8 24.4 61.8 24.9C61.8 25.4 62 25.9 62.3 26.2C62.7 26.5 63.1 26.7 63.6 26.7C64.1 26.7 64.6 26.6 65 26.3V27C64.6 27.2 64.1 27.4 63.5 27.4Z" fill="#333333"/>
<path d="M69.6 27.3H68.9V22.6H69.6V24.6H72.5V22.6H73.2V27.3H72.5V25.2H69.6V27.3Z" fill="#333333"/>
<path d="M78.6 27.4C78.1 27.4 77.7 27.3 77.3 27C77 26.7 76.8 26.3 76.8 25.9C76.8 25.4 77 25 77.3 24.8C77.7 24.5 78.1 24.4 78.7 24.4C79.3 24.4 79.9 24.6 80.4 24.9V24.4C80.4 23.6 79.9 23.2 78.9 23.2C78.3 23.2 77.8 23.4 77.4 23.7V23C77.9 22.7 78.4 22.6 79.1 22.6C79.7 22.6 80.3 22.8 80.6 23.1C81 23.4 81.2 23.8 81.2 24.4V26.3C81.2 26.5 81.2 26.6 81.3 26.7C81.4 26.8 81.5 26.9 81.6 26.9C81.7 26.9 81.8 26.9 81.9 26.8V27.3C81.8 27.4 81.6 27.4 81.4 27.4C81.2 27.4 81 27.3 80.8 27.2C80.6 27.1 80.5 26.9 80.5 26.6C80 27.1 79.4 27.4 78.6 27.4ZM78.8 26.7C79.1 26.7 79.4 26.6 79.7 26.5C80 26.4 80.2 26.2 80.4 25.9V25.2C79.9 24.9 79.4 24.7 78.9 24.7C78.5 24.7 78.1 24.8 77.9 25C77.7 25.2 77.5 25.4 77.5 25.7C77.5 26 77.6 26.2 77.9 26.4C78.1 26.7 78.4 26.7 78.8 26.7Z" fill="#333333"/>
<path d="M85.8 27.3H85L86.4 25.4C86 25.3 85.7 25.2 85.5 24.9C85.3 24.7 85.2 24.3 85.2 24C85.2 23.6 85.3 23.2 85.6 23C85.9 22.7 86.3 22.6 86.8 22.6H89.2V27.3H88.5V25.6H87L85.8 27.3ZM87.1 24.9H88.7V23.2H87.1C86.8 23.2 86.5 23.3 86.3 23.4C86.1 23.6 86 23.8 86 24C86 24.3 86.1 24.5 86.3 24.6C86.4 24.8 86.7 24.9 87.1 24.9Z" fill="#333333"/>
<path d="M99.1 27.3H98.4V22.6H99.1L101 24.8L102.9 22.6H103.6V27.3H102.9V23.6L101.2 25.6H100.9L99.2 23.6V27.3H99.1Z" fill="#333333"/>
<path d="M109.9 27.4C109.2 27.4 108.6 27.2 108.1 26.7C107.6 26.2 107.4 25.7 107.4 24.9C107.4 24.2 107.6 23.6 108.1 23.1C108.5 22.6 109.1 22.4 109.8 22.4C110.2 22.4 110.5 22.5 110.8 22.6C111.1 22.8 111.3 23 111.5 23.2C111.7 23.4 111.8 23.7 111.9 24C112 24.3 112 24.6 112 24.8V25H108C108 25.5 108.2 25.9 108.6 26.2C109 26.5 109.4 26.7 110 26.7C110.5 26.7 111 26.6 111.5 26.3V26.9C111.1 27.2 110.6 27.4 109.9 27.4ZM108 24.5H111.1C111.1 24.1 110.9 23.8 110.7 23.5C110.5 23.2 110.1 23.1 109.6 23.1C109.1 23.1 108.8 23.2 108.5 23.5C108.2 23.8 108 24.1 108 24.5Z" fill="#333333"/>
<path d="M117.9 27.4C117.1 27.4 116.5 27.1 116 26.6C115.6 26 115.3 25.3 115.3 24.3C115.3 23.1 115.6 22.2 116.2 21.6C116.4 21.4 116.8 21.2 117.3 21C117.5 20.9 117.8 20.8 118 20.8C118.2 20.7 118.5 20.7 118.8 20.6C118.9 20.6 119 20.6 119.2 20.5C119.4 20.5 119.5 20.4 119.6 20.4V21C118.9 21.1 118.4 21.2 118.1 21.3C117.4 21.5 116.8 21.7 116.5 22.1C116.1 22.5 115.9 23.1 115.9 23.8C116.1 23.5 116.4 23.2 116.7 23C117.1 22.8 117.5 22.7 117.9 22.7C118.5 22.7 119 22.9 119.4 23.3C119.8 23.7 120 24.2 120 24.9C120 25.6 119.8 26.2 119.3 26.6C119.1 27.1 118.6 27.4 117.9 27.4ZM117.9 26.7C118.4 26.7 118.7 26.5 119.1 26.2C119.4 25.9 119.6 25.5 119.6 25C119.6 24.5 119.4 24.1 119.1 23.8C118.8 23.5 118.4 23.4 118 23.4C117.6 23.4 117.2 23.5 116.9 23.8C116.6 24 116.3 24.3 116.2 24.7C116.2 25.4 116.4 25.9 116.7 26.2C116.9 26.6 117.3 26.7 117.9 26.7Z" fill="#333333"/>
<path d="M126.2 27.4C125.5 27.4 124.9 27.2 124.4 26.7C123.9 26.2 123.7 25.7 123.7 24.9C123.7 24.2 123.9 23.6 124.4 23.1C124.8 22.6 125.4 22.4 126.1 22.4C126.5 22.4 126.8 22.5 127.1 22.6C127.4 22.8 127.6 23 127.8 23.2C128 23.4 128.1 23.7 128.2 24C128.3 24.3 128.3 24.6 128.3 24.8V25H124.4C124.4 25.5 124.6 25.9 125 26.2C125.4 26.5 125.8 26.7 126.4 26.7C126.9 26.7 127.4 26.6 127.9 26.3V26.9C127.5 27.2 126.9 27.4 126.2 27.4ZM124.4 24.5H127.5C127.5 24.1 127.3 23.8 127.1 23.5C126.9 23.2 126.5 23.1 126 23.1C125.5 23.1 125.2 23.2 124.9 23.5C124.5 23.8 124.4 24.1 124.4 24.5Z" fill="#333333"/>
<path d="M131.3 27.3V26.7C131.3 26.7 131.4 26.7 131.5 26.7C131.9 26.7 132.2 26.4 132.3 25.9C132.4 25.5 132.5 24.9 132.5 24.1V22.6H136V27.3H135.3V23.2H133.2V24.1C133.2 24.4 133.2 24.7 133.2 24.9C133.1 25.5 133 26 132.9 26.3C132.8 26.6 132.6 26.9 132.4 27.1C132.2 27.3 131.9 27.4 131.5 27.4C131.4 27.3 131.3 27.3 131.3 27.3Z" fill="#333333"/>
<path d="M142.5 27.3H140.1V22.6H140.8V24.2H142.4C142.9 24.2 143.4 24.3 143.7 24.6C144 24.9 144.2 25.3 144.2 25.7C144.2 26.2 144 26.6 143.7 26.8C143.5 27.1 143 27.3 142.5 27.3ZM140.8 24.8V26.7H142.3C142.7 26.7 143 26.6 143.2 26.5C143.4 26.3 143.5 26.1 143.5 25.8C143.5 25.5 143.4 25.3 143.2 25.1C143 24.9 142.7 24.9 142.3 24.9H140.8V24.8Z" fill="#333333"/>

</svg>
