<svg width="179" height="67" viewBox="0 0 179 67" fill="none" xmlns="http://www.w3.org/2000/svg">

<path d="M6.4 62.9H7.7V66.1H7V63.5H0V56.3H0.8V62.9H5.7V56.3H6.5V62.9H6.4ZM16.1 60.8C16.2 61 16.2 61.2 16.2 61.4C16.2 61.7 16.1 62 16 62.2C15.9 62.5 15.7 62.7 15.5 62.9C15.3 63.1 15 63.2 14.7 63.3C14.4 63.4 14.1 63.5 13.7 63.5H10.3V56.3H13.5C13.9 56.3 14.3 56.3 14.6 56.4C14.9 56.5 15.2 56.6 15.3 56.8C15.5 57 15.6 57.1 15.7 57.4C15.8 57.6 15.8 57.8 15.8 58.1C15.8 58.3 15.8 58.5 15.7 58.7C15.6 58.9 15.5 59.1 15.4 59.2C15.3 59.4 15.1 59.5 14.9 59.6C14.7 59.7 14.5 59.8 14.3 59.8C14.6 59.8 14.9 59.9 15.1 60C15.3 60.1 15.5 60.2 15.7 60.4C15.9 60.4 16 60.6 16.1 60.8ZM11 59.4H13.1C13.5 59.4 13.8 59.4 14 59.3C14.2 59.2 14.4 59.1 14.6 59C14.7 58.9 14.9 58.7 14.9 58.6C15 58.4 15 58.3 15 58.1C15 57.9 15 57.8 14.9 57.6C14.8 57.4 14.7 57.3 14.6 57.2C14.5 57.1 14.3 57 14.1 56.9C13.9 56.8 13.6 56.8 13.3 56.8H11V59.4ZM15.4 61.4C15.4 61.2 15.4 61 15.3 60.9C15.2 60.7 15.1 60.6 14.9 60.5C14.7 60.4 14.5 60.3 14.2 60.2C13.9 60.1 13.6 60.1 13.2 60.1H11V62.9H13.5C13.8 62.9 14.1 62.9 14.3 62.8C14.5 62.7 14.7 62.6 14.9 62.5C15.1 62.4 15.2 62.2 15.3 62.1C15.4 61.8 15.4 61.7 15.4 61.4ZM24.7 57C25.3 57.6 25.5 58.5 25.5 59.6V59.9H19.3C19.3 60.9 19.6 61.7 20.1 62.2C20.6 62.8 21.4 63 22.3 63C23.2 63 24.1 62.7 25 62.1V62.8C24.1 63.3 23.2 63.6 22.1 63.6C21 63.6 20.2 63.3 19.5 62.6C18.8 61.9 18.5 61 18.5 59.8C18.5 58.7 18.8 57.9 19.5 57.1C20.2 56.4 21.1 56 22.2 56C23.3 56 24.1 56.4 24.7 57ZM24.7 59.3C24.7 58.5 24.4 57.8 24 57.4C23.6 56.9 23 56.7 22.2 56.7C21.4 56.7 20.8 56.9 20.3 57.4C19.8 57.9 19.5 58.5 19.3 59.4H24.7V59.3ZM27.3 56.8H29.8V63.4H30.6V56.8H33.1V56.2H27.3V56.8ZM41.3 57C42 57.7 42.3 58.6 42.3 59.8C42.3 60.9 41.9 61.8 41.2 62.5C40.5 63.2 39.5 63.5 38.3 63.5C37.1 63.5 36.1 63.2 35.4 62.5C34.7 61.8 34.3 60.9 34.3 59.8C34.3 58.6 34.7 57.7 35.4 57C36.1 56.3 37.1 56 38.3 56C39.7 56 40.6 56.4 41.3 57ZM41.6 59.8C41.6 58.8 41.3 58 40.8 57.4C40.3 56.8 39.5 56.6 38.5 56.6C37.5 56.6 36.7 56.9 36.1 57.5C35.5 58.1 35.2 58.9 35.2 59.9C35.2 60.8 35.5 61.6 36.1 62.2C36.7 62.8 37.5 63.1 38.4 63.1C39.4 63.1 40.2 62.8 40.7 62.3C41.3 61.6 41.6 60.8 41.6 59.8ZM50.6 59.7C50.2 59.9 49.7 60.1 49.2 60.2C48.7 60.3 48.2 60.4 47.7 60.4C47.3 60.4 47 60.4 46.8 60.3C46.6 60.2 46.4 60.1 46.2 59.9C46.1 59.7 46 59.5 45.9 59.3C45.8 59.1 45.8 58.8 45.8 58.5V56.2H45V58.6C45 59 45.1 59.4 45.2 59.7C45.3 60 45.5 60.3 45.7 60.5C45.9 60.7 46.2 60.8 46.5 60.9C46.8 61 47.1 61 47.5 61C48 61 48.5 60.9 49 60.8C49.5 60.7 50 60.5 50.5 60.2V63.4H51.3V56.2H50.5V59.7H50.6ZM60.5 59.4H55.6V56.2H54.9V63.4H55.6V60H60.5V63.5H61.3V56.3H60.5V59.4ZM69.9 56.7C70.4 57.2 70.6 57.8 70.6 58.7V63.4H69.9V62C69.6 62.5 69.2 62.9 68.7 63.2C68.2 63.5 67.6 63.6 67 63.6C66.2 63.6 65.6 63.4 65.1 63C64.6 62.6 64.4 62.1 64.4 61.5C64.4 60.2 65.4 59.5 67.3 59.2L69.9 58.9C69.9 57.3 69.2 56.6 67.9 56.6C67 56.6 66.1 56.9 65.2 57.6V56.8C65.5 56.6 65.9 56.4 66.5 56.3C67 56.1 67.5 56.1 68 56.1C68.7 56 69.4 56.3 69.9 56.7ZM69.8 59.6L67.5 59.9C66.6 60 66 60.2 65.7 60.4C65.3 60.6 65.2 61 65.2 61.6C65.2 62 65.4 62.4 65.7 62.7C66 62.9 66.4 63 67 63C67.8 63 68.5 62.7 69 62.2C69.5 61.7 69.8 61 69.8 60.2V59.6ZM76.7 56.2H79.3V63.4H78.5V60.2H77.1C77 60.2 76.8 60.2 76.6 60.3C76.4 60.3 76.3 60.4 76.1 60.5C75.9 60.6 75.8 60.7 75.6 60.9C75.4 61.1 75.3 61.3 75.2 61.5L74.3 63.4H73.4L74.5 61.4C74.7 61.1 74.9 60.8 75.1 60.6C75.3 60.4 75.6 60.2 75.9 60.1C75.2 60 74.7 59.8 74.4 59.5C74.1 59.2 73.9 58.7 73.9 58.2C73.9 58 73.9 57.7 74 57.5C74.1 57.3 74.3 57 74.5 56.9C74.7 56.7 75 56.6 75.4 56.4C75.7 56.3 76.2 56.2 76.7 56.2ZM76.7 56.8C76 56.8 75.5 56.9 75.2 57.2C74.9 57.5 74.7 57.8 74.7 58.3C74.7 58.6 74.7 58.8 74.8 59C74.9 59.2 75 59.3 75.2 59.5C75.4 59.6 75.6 59.7 75.8 59.8C76 59.9 76.3 59.9 76.6 59.9H78.5V57H76.7V56.8ZM92.9 61.3C92.9 61.4 92.8 61.5 92.7 61.7C92.6 61.9 92.6 62 92.5 62.1C92.4 62.3 92.3 62.4 92.3 62.6C92.2 62.4 92.2 62.3 92.1 62.1C92 62 92 61.8 91.9 61.7C91.8 61.5 91.8 61.4 91.7 61.3L89.2 56.3H88.3V63.5H89V57.2C89.1 57.4 89.1 57.6 89.2 57.7C89.3 57.8 89.3 58 89.4 58.1C89.5 58.3 89.5 58.4 89.6 58.5L92 63.4H92.6L94.9 58.5C94.9 58.4 95 58.3 95.1 58.1C95.2 57.9 95.2 57.8 95.3 57.7L95.5 57.2V63.5H96.2V56.3H95.3L92.9 61.3ZM104.8 56.7C105.3 57.2 105.5 57.8 105.5 58.7V63.4H104.7V62C104.4 62.5 104 62.9 103.5 63.2C103 63.5 102.4 63.6 101.8 63.6C101 63.6 100.4 63.4 99.9 63C99.4 62.6 99.2 62.1 99.2 61.5C99.2 60.2 100.2 59.5 102.1 59.2L104.7 58.9C104.7 57.3 104 56.6 102.7 56.6C101.8 56.6 100.9 56.9 100 57.6V56.8C100.3 56.6 100.7 56.4 101.3 56.3C101.8 56.1 102.3 56.1 102.8 56.1C103.7 56 104.3 56.3 104.8 56.7ZM104.8 59.6L102.5 59.9C101.6 60 101 60.2 100.7 60.4C100.3 60.6 100.2 61 100.2 61.6C100.2 62 100.4 62.4 100.7 62.7C101 63 101.5 63.1 102.1 63.1C102.9 63.1 103.6 62.8 104.1 62.3C104.6 61.8 104.9 61.1 104.9 60.3V59.6H104.8ZM109.5 57.1C108.7 57.8 108.3 58.8 108.3 59.9C108.3 61 108.6 61.9 109.3 62.6C110 63.3 110.9 63.6 112 63.6C112.9 63.6 113.6 63.4 114.2 63.1V62.4C113.6 62.8 112.9 63 112 63C111.1 63 110.4 62.7 109.8 62.1C109.2 61.5 109 60.8 109 59.8C109 58.8 109.3 58 109.9 57.4C110.5 56.8 111.3 56.5 112.3 56.5C113 56.5 113.7 56.7 114.3 57V56.3C113.7 56.1 113.1 56 112.4 56C111.2 56 110.2 56.4 109.5 57.1ZM116 56.8H118.5V63.4H119.3V56.8H121.8V56.2H116V56.8ZM129.7 57C130.3 57.6 130.5 58.5 130.5 59.6V59.9H124.3C124.3 60.9 124.6 61.7 125.1 62.2C125.6 62.8 126.4 63 127.3 63C128.2 63 129.1 62.7 130 62.1V62.8C129.1 63.3 128.2 63.6 127.1 63.6C126 63.6 125.2 63.3 124.5 62.6C123.8 61.9 123.5 61 123.5 59.8C123.5 58.7 123.8 57.9 124.5 57.1C125.2 56.4 126.1 56 127.2 56C128.4 56 129.2 56.4 129.7 57ZM129.8 59.3C129.8 58.5 129.5 57.8 129.1 57.4C128.7 56.9 128.1 56.7 127.3 56.7C126.5 56.7 125.9 56.9 125.4 57.4C124.9 57.9 124.6 58.5 124.4 59.4H129.8V59.3ZM139.9 57C140.5 57.6 140.8 58.5 140.8 59.6C140.8 60.8 140.5 61.8 139.8 62.5C139.1 63.2 138.2 63.6 137.1 63.6C135.8 63.6 134.9 63.1 134.3 62.1V66.7H133.6V56.2H134.3V57.7C134.6 57.2 135 56.8 135.6 56.5C136.2 56.2 136.8 56.1 137.4 56.1C138.5 56 139.3 56.4 139.9 57ZM140 59.6C140 58.7 139.8 58 139.3 57.4C138.8 56.9 138.2 56.6 137.3 56.6C136.3 56.6 135.6 56.9 135 57.4C134.5 58 134.2 58.6 134.2 59.4V60.3C134.2 61 134.5 61.6 135 62.2C135.5 62.7 136.2 63 137.1 63C138 63 138.6 62.7 139.2 62C139.7 61.5 140 60.6 140 59.6ZM144.3 57.1C143.5 57.8 143.1 58.8 143.1 59.9C143.1 61 143.4 61.9 144.1 62.6C144.8 63.3 145.7 63.6 146.8 63.6C147.7 63.6 148.4 63.4 149 63.1V62.4C148.4 62.8 147.7 63 146.8 63C145.9 63 145.2 62.7 144.6 62.1C144 61.5 143.8 60.8 143.8 59.8C143.8 58.8 144.1 58 144.7 57.4C145.3 56.8 146.1 56.5 147.1 56.5C147.8 56.5 148.5 56.7 149.1 57V56.3C148.5 56.1 147.9 56 147.2 56C146.1 56 145.1 56.4 144.3 57.1ZM157.6 56.2H156.6L152.7 59.7V56.2H152V63.4H152.7V59.8L156.6 63.4H157.7L153.5 59.7L157.6 56.2ZM165.2 56.7C165.7 57.2 165.9 57.8 165.9 58.7V63.4H165.2V62C164.9 62.5 164.5 62.9 164 63.2C163.5 63.5 162.9 63.6 162.3 63.6C161.5 63.6 160.9 63.4 160.4 63C159.9 62.6 159.7 62.1 159.7 61.5C159.7 60.2 160.7 59.5 162.6 59.2L165.2 58.9C165.2 57.3 164.5 56.6 163.2 56.6C162.3 56.6 161.4 56.9 160.5 57.6V56.8C160.8 56.6 161.2 56.4 161.8 56.3C162.3 56.1 162.8 56.1 163.3 56.1C164 56 164.7 56.3 165.2 56.7ZM165.1 59.6L162.8 59.9C161.9 60 161.3 60.2 161 60.4C160.6 60.6 160.5 61 160.5 61.6C160.5 62 160.7 62.4 161 62.7C161.3 63 161.8 63.1 162.4 63.1C163.2 63.1 163.9 62.8 164.4 62.3C164.9 61.8 165.2 61.1 165.2 60.3V59.6H165.1ZM174.6 56.2V63.4H173.8V60.2H172.4C172.3 60.2 172.1 60.2 171.9 60.3C171.7 60.3 171.6 60.4 171.4 60.5C171.2 60.6 171.1 60.7 170.9 60.9C170.7 61.1 170.6 61.3 170.5 61.5L169.6 63.4H168.7L169.8 61.4C170 61.1 170.2 60.8 170.4 60.6C170.6 60.4 170.9 60.2 171.2 60.1C170.5 60 170 59.8 169.7 59.5C169.4 59.2 169.2 58.7 169.2 58.2C169.2 58 169.2 57.7 169.3 57.5C169.4 57.3 169.6 57 169.8 56.9C170 56.7 170.3 56.6 170.7 56.4C171.1 56.3 171.5 56.2 172 56.2H174.6ZM173.9 56.8H172C171.3 56.8 170.8 56.9 170.5 57.2C170.2 57.5 170 57.8 170 58.3C170 58.6 170 58.8 170.1 59C170.2 59.2 170.3 59.3 170.5 59.5C170.7 59.6 170.9 59.7 171.1 59.8C171.3 59.9 171.6 59.9 171.9 59.9H173.8V56.8H173.9Z" fill="#FFFFFF"/>
<path d="M128.8 0H135.6V47.9H134.2L98 14.3V47.9H91.2V0H92.6L128.9 33.5V0H128.8ZM143.2 0V6.8H157.6V47.9H164.4V6.8H178.8V0H143.2ZM60.4 0L35.8 47.9H43.5L47.5 40L49.1 36.9L53.8 27.7L61.1 13.5L69.6 30H55.7L52.2 37H73.1L78.8 47.9H86.5L61.8 0H60.4ZM28.8 23.1C31.1 20.6 32.6 17.3 32.6 13.7C32.6 6.2 26.4 0 18.9 0H15.9H14.1H11H0V47.9H6.8V15.3V6.8H14.1H15.9H18.9C22.7 6.8 25.7 9.9 25.7 13.6C25.7 17.4 22.6 20.4 18.9 20.4H15.3H14.1H10V27.2H11H14.1H20.9C24.7 27.2 27.7 30.3 27.7 34C27.7 37.8 24.6 40.8 20.9 40.8H17.7H14.1H11H10V47.6H11H14.1H20.9C28.4 47.6 34.6 41.4 34.6 33.9C34.6 29.6 32.3 25.6 28.8 23.1Z" fill="#FFFFFF"/>

</svg>
