<svg width="220" height="66" viewBox="0 0 220 66" fill="none" xmlns="http://www.w3.org/2000/svg">
<path d="M35.35 44.6V33.8H12.85V0H0.150024V44.6H12.35V55.3H0.150024V66H35.35V55.3H23.15V44.6H35.35Z" fill="#F8F8F8"/>
<path d="M55.05 4.90001C55.15 5.10001 55.15 5.30001 54.95 5.40001L52.85 7.00001C52.65 7.20001 52.35 7.10001 52.25 6.90001C50.85 5.10001 49.45 4.20001 47.15 4.20001C43.85 4.20001 41.65 6.50001 41.65 9.80001C41.65 13.1 43.85 15.5 47.15 15.5C49.35 15.5 50.95 14.7 52.35 12.7C52.55 12.5 52.65 12.5 52.85 12.7L54.95 14.4C55.15 14.6 55.15 14.8 55.05 14.9C53.35 17.7 50.45 19.1 47.15 19.1C41.85 19.1 37.85 15.1 37.85 9.80001C37.85 4.50001 41.85 0.600006 47.15 0.600006C50.25 0.600006 53.45 2.20001 55.05 4.90001Z" fill="#F8F8F8"/>
<path d="M80.35 0.900018C80.65 0.900018 80.85 1.10002 80.85 1.40002V4.00002C80.85 4.30002 80.65 4.50002 80.35 4.50002H70.35V7.90002H79.15C79.45 7.90002 79.65 8.10002 79.65 8.40002V11C79.65 11.3 79.45 11.5 79.15 11.5H70.35V15.4H80.65C80.95 15.4 81.15 15.6 81.15 15.9V18.6C81.15 18.9 80.95 19.1 80.65 19.1H66.95C66.65 19.1 66.45 18.9 66.45 18.6V1.30002C66.45 1.00002 66.65 0.800018 66.95 0.800018H80.35V0.900018Z" fill="#F8F8F8"/>
<path d="M96.35 0.900018C96.65 0.900018 96.85 1.10002 96.85 1.40002V7.80002H105.05V1.30002C105.05 1.00002 105.25 0.800018 105.55 0.800018H108.45C108.75 0.800018 108.95 1.00002 108.95 1.30002V18.4C108.95 18.7 108.75 18.9 108.45 18.9H105.55C105.25 18.9 105.05 18.7 105.05 18.4V11.3H96.85V18.4C96.85 18.7 96.65 18.9 96.35 18.9H93.45C93.15 18.9 92.95 18.7 92.95 18.4V1.30002C92.95 1.00002 93.15 0.800018 93.45 0.800018H96.35V0.900018Z" fill="#F8F8F8"/>
<path d="M134.65 15.3H125.65L124.35 18.5C124.25 18.8 124.05 18.9 123.75 18.9H120.45C120.15 18.9 120.05 18.7 120.15 18.4L127.95 1.10002C128.05 0.900018 128.15 0.800018 128.35 0.800018H132.15C132.35 0.800018 132.55 0.900018 132.55 1.10002L139.95 18.3C140.05 18.6 139.85 18.8 139.55 18.8H136.45C136.15 18.8 135.85 18.6 135.75 18.3L134.65 15.3ZM127.05 11.8H133.35L130.45 4.40002H130.05L127.05 11.8Z" fill="#F8F8F8"/>
<path d="M164.05 0.900018C164.35 0.900018 164.55 1.10002 164.55 1.40002V4.00002C164.55 4.30002 164.35 4.50002 164.05 4.50002H158.35V18.4C158.35 18.7 158.15 18.9 157.85 18.9H154.95C154.65 18.9 154.45 18.7 154.45 18.4V4.50002H148.75C148.45 4.50002 148.25 4.30002 148.25 4.00002V1.30002C148.25 1.00002 148.45 0.800018 148.75 0.800018H164.05V0.900018Z" fill="#F8F8F8"/>
<path d="M183.25 0.600006C188.45 0.600006 192.65 4.60001 192.65 9.90001C192.65 15.2 188.35 19.1 183.25 19.1C178.05 19.1 173.75 15.2 173.75 9.90001C173.75 4.60001 178.05 0.600006 183.25 0.600006ZM177.65 9.90001C177.65 13.2 179.95 15.5 183.25 15.5C186.55 15.5 188.85 13.1 188.85 9.90001C188.85 6.60001 186.55 4.20001 183.25 4.20001C179.95 4.20001 177.65 6.60001 177.65 9.90001Z" fill="#F8F8F8"/>
<path d="M212.85 0.900018C216.85 0.900018 219.85 3.80002 219.85 7.50002C219.85 11.3 216.85 14.1 212.85 14.1H208.05V18.4C208.05 18.7 207.85 18.9 207.55 18.9H204.65C204.35 18.9 204.15 18.7 204.15 18.4V1.30002C204.15 1.00002 204.35 0.800018 204.65 0.800018H212.85V0.900018ZM212.85 10.5C214.85 10.5 216.05 9.20002 216.05 7.50002C216.05 5.80002 214.85 4.60002 212.85 4.60002H208.05V10.5H212.85Z" fill="#F8F8F8"/>
<path d="M53.25 34.8C53.95 34.1 54.85 33.7 55.95 33.7C57.05 33.7 57.95 34.1 58.65 34.8C59.35 35.5 59.75 36.4 59.75 37.4C59.75 38.4 59.35 39.3 58.65 40C57.95 40.7 57.05 41.1 55.95 41.1C54.85 41.1 53.95 40.7 53.25 40C52.55 39.3 52.15 38.4 52.15 37.4C52.15 36.4 52.55 35.5 53.25 34.8ZM58.75 37.4C58.75 36.6 58.45 36 57.95 35.4C57.45 34.9 56.75 34.6 55.95 34.6C55.15 34.6 54.55 34.9 53.95 35.4C53.45 35.9 53.15 36.6 53.15 37.4C53.15 38.2 53.45 38.8 53.95 39.4C54.45 39.9 55.15 40.2 55.95 40.2C56.75 40.2 57.35 39.9 57.95 39.4C58.45 38.9 58.75 38.2 58.75 37.4Z" fill="#F8F8F8"/>
<path d="M68.95 33.8V30.8H70.05V33.8C71.35 33.8 72.25 34.2 73.05 34.8C73.75 35.5 74.15 36.3 74.15 37.4C74.15 38.5 73.75 39.3 73.05 40C72.35 40.6 71.35 41 70.05 41V43.8H68.95V41C67.75 41 66.75 40.6 65.95 40C65.25 39.3 64.85 38.5 64.85 37.4C64.85 36.3 65.25 35.5 65.95 34.8C66.65 34.2 67.65 33.8 68.95 33.8ZM68.95 40.1V34.7C68.05 34.7 67.35 34.9 66.75 35.4C66.15 35.9 65.95 36.5 65.95 37.4C65.95 38.3 66.25 38.9 66.75 39.4C67.35 39.9 68.05 40.1 68.95 40.1ZM70.05 34.7V40.1C70.95 40.1 71.65 39.9 72.25 39.4C72.85 38.9 73.15 38.2 73.15 37.4C73.15 36.6 72.85 35.9 72.25 35.4C71.55 34.9 70.85 34.7 70.05 34.7Z" fill="#F8F8F8"/>
<path d="M80.65 40.9H79.65V33.9H80.75V39.4L85.25 33.9H86.25V40.9H85.25V35.4L80.65 40.9Z" fill="#F8F8F8"/>
<path d="M95.55 41.1C94.45 41.1 93.55 40.7 92.85 40C92.15 39.3 91.75 38.4 91.75 37.3C91.75 36.2 92.15 35.4 92.85 34.7C93.55 34 94.45 33.6 95.55 33.6C96.35 33.6 97.05 33.8 97.65 34.1V35.1C97.05 34.7 96.35 34.6 95.65 34.6C94.85 34.6 94.15 34.9 93.65 35.4C93.15 35.9 92.85 36.6 92.85 37.4C92.85 38.2 93.15 38.8 93.65 39.4C94.15 39.9 94.85 40.2 95.65 40.2C96.45 40.2 97.15 40 97.75 39.6V40.6C97.15 40.9 96.45 41.1 95.55 41.1Z" fill="#F8F8F8"/>
<path d="M104.65 40.9H103.55V33.9H104.65V36.9H108.95V33.9H110.05V40.9H108.95V37.8H104.65V40.9Z" fill="#F8F8F8"/>
<path d="M118.25 41.1C117.55 41.1 116.85 40.9 116.35 40.5C115.85 40.1 115.55 39.5 115.55 38.8C115.55 38.1 115.85 37.5 116.35 37.1C116.85 36.7 117.55 36.5 118.45 36.5C119.35 36.5 120.25 36.7 120.95 37.2V36.5C120.95 35.3 120.15 34.7 118.65 34.7C117.85 34.7 117.05 34.9 116.35 35.4V34.4C117.05 34 117.85 33.8 118.85 33.8C119.85 33.8 120.55 34 121.15 34.5C121.75 35 122.05 35.6 122.05 36.4V39.3C122.05 39.6 122.15 39.8 122.25 39.9C122.35 40.1 122.55 40.1 122.75 40.1C122.95 40.1 123.05 40.1 123.15 40V40.8C122.95 40.9 122.75 41 122.45 41C122.15 41 121.85 40.9 121.55 40.7C121.35 40.5 121.15 40.2 121.15 39.9C120.35 40.7 119.45 41.1 118.25 41.1ZM118.55 40.2C119.05 40.2 119.45 40.1 119.95 39.9C120.35 39.7 120.75 39.4 121.05 39.1V38.1C120.35 37.6 119.55 37.4 118.75 37.4C118.15 37.4 117.65 37.5 117.25 37.8C116.85 38.1 116.65 38.4 116.65 38.8C116.65 39.3 116.85 39.6 117.15 39.9C117.55 40 117.95 40.2 118.55 40.2Z" fill="#F8F8F8"/>
<path d="M129.15 40.9H127.95L130.05 38.1C129.45 38 129.05 37.8 128.75 37.4C128.45 37 128.25 36.6 128.25 36C128.25 35.3 128.45 34.8 128.95 34.4C129.35 34 130.05 33.8 130.85 33.8H134.45V40.8H133.35V38.2H131.05L129.15 40.9ZM130.95 37.4H133.35V34.8H130.95C130.45 34.8 130.05 34.9 129.75 35.1C129.45 35.3 129.35 35.6 129.35 36.1C129.35 36.5 129.45 36.8 129.75 37.1C130.05 37.3 130.45 37.4 130.95 37.4Z" fill="#F8F8F8"/>
<path d="M149.05 40.9H148.05V33.9H149.05L151.85 37.2L154.65 33.9H155.65V40.9H154.65V35.3L152.05 38.3H151.65L149.05 35.3V40.9Z" fill="#F8F8F8"/>
<path d="M165.15 41.1C164.05 41.1 163.15 40.8 162.35 40.1C161.65 39.4 161.25 38.5 161.25 37.4C161.25 36.3 161.55 35.5 162.25 34.8C162.95 34.1 163.75 33.7 164.85 33.7C165.45 33.7 165.95 33.8 166.35 34C166.75 34.2 167.15 34.5 167.35 34.9C167.65 35.3 167.75 35.7 167.95 36.1C168.05 36.5 168.15 36.9 168.15 37.3V37.6H162.35C162.45 38.4 162.75 39 163.25 39.4C163.75 39.9 164.45 40.1 165.35 40.1C166.15 40.1 166.95 39.9 167.65 39.4V40.3C167.05 40.9 166.25 41.1 165.15 41.1ZM162.45 36.8H167.15C167.15 36.3 166.95 35.8 166.55 35.3C166.15 34.9 165.65 34.6 164.85 34.6C164.15 34.6 163.55 34.8 163.15 35.2C162.65 35.8 162.45 36.3 162.45 36.8Z" fill="#F8F8F8"/>
<path d="M177.25 41.1C176.05 41.1 175.15 40.7 174.45 39.8C173.75 39 173.45 37.8 173.45 36.4C173.45 34.6 173.95 33.2 174.85 32.3C175.15 32 175.75 31.7 176.55 31.3C176.95 31.2 177.25 31.1 177.65 31C178.05 30.9 178.35 30.8 178.85 30.7C178.95 30.7 179.15 30.6 179.45 30.6C179.75 30.5 179.95 30.5 180.05 30.5V31.5C179.05 31.7 178.25 31.9 177.75 32C176.65 32.3 175.85 32.7 175.35 33.2C174.85 33.8 174.55 34.6 174.45 35.8C174.75 35.3 175.15 34.9 175.75 34.6C176.25 34.3 176.95 34.2 177.65 34.2C178.55 34.2 179.35 34.5 179.95 35.1C180.55 35.7 180.85 36.5 180.85 37.5C180.85 38.6 180.55 39.4 179.85 40.1C179.05 40.8 178.25 41.1 177.25 41.1ZM177.25 40.2C177.95 40.2 178.55 40 178.95 39.5C179.45 39 179.65 38.4 179.65 37.6C179.65 36.9 179.45 36.3 178.95 35.8C178.45 35.4 177.95 35.1 177.25 35.1C176.65 35.1 176.05 35.3 175.55 35.7C175.05 36.1 174.65 36.5 174.45 37C174.45 38 174.75 38.8 175.25 39.3C175.75 39.9 176.45 40.2 177.25 40.2Z" fill="#F8F8F8"/>
<path d="M189.75 41.1C188.65 41.1 187.75 40.8 186.95 40.1C186.25 39.4 185.85 38.5 185.85 37.4C185.85 36.3 186.15 35.5 186.85 34.8C187.55 34.1 188.35 33.7 189.45 33.7C190.05 33.7 190.55 33.8 190.95 34C191.35 34.2 191.75 34.5 191.95 34.9C192.25 35.3 192.35 35.7 192.55 36.1C192.65 36.5 192.75 36.9 192.75 37.3V37.6H186.95C187.05 38.4 187.35 39 187.85 39.4C188.35 39.9 189.05 40.1 189.95 40.1C190.75 40.1 191.55 39.9 192.25 39.4V40.3C191.65 40.9 190.85 41.1 189.75 41.1ZM186.95 36.8H191.65C191.65 36.3 191.45 35.8 191.05 35.3C190.65 34.9 190.15 34.6 189.35 34.6C188.65 34.6 188.05 34.8 187.65 35.2C187.25 35.8 187.05 36.3 186.95 36.8Z" fill="#F8F8F8"/>
<path d="M197.35 40.9V39.9C197.35 39.9 197.45 39.9 197.65 39.9C198.25 39.9 198.65 39.5 198.95 38.7C199.15 38.1 199.25 37.2 199.25 36L199.35 33.8H204.65V40.8H203.55V34.7H200.35V36.1C200.35 36.6 200.35 37 200.25 37.2C200.15 38.2 200.05 38.9 199.85 39.3C199.65 39.8 199.45 40.1 199.05 40.4C198.65 40.7 198.25 40.8 197.75 40.8C197.45 41 197.35 41 197.35 40.9Z" fill="#F8F8F8"/>
<path d="M214.25 40.9H210.65V33.9H211.75V36.3H214.25C215.05 36.3 215.75 36.5 216.25 36.9C216.75 37.3 216.95 37.9 216.95 38.6C216.95 39.3 216.75 39.9 216.25 40.3C215.65 40.7 215.05 40.9 214.25 40.9ZM211.75 37.2V40H214.05C214.65 40 215.05 39.9 215.35 39.6C215.65 39.4 215.85 39 215.85 38.6C215.85 38.1 215.65 37.8 215.35 37.5C215.05 37.3 214.65 37.1 214.05 37.1H211.75V37.2Z" fill="#F8F8F8"/>

</svg>
