<svg width="17"  viewBox="0 0 17 18" fill="none" xmlns="http://www.w3.org/2000/svg">
<path d="M11.9 0.799988H5.10001C2.30001 0.799988 0.100006 2.99999 0.100006 5.69999V12.4C0.100006 15.1 2.30001 17.3 5.10001 17.3H11.9C14.7 17.3 16.9 15.1 16.9 12.4V5.69999C16.9 2.99999 14.6 0.799988 11.9 0.799988ZM15.2 12.4C15.2 14.2 13.7 15.7 11.9 15.7H5.10001C3.30001 15.7 1.80001 14.2 1.80001 12.4V5.69999C1.80001 3.89999 3.30001 2.39999 5.10001 2.39999H11.9C13.7 2.39999 15.2 3.89999 15.2 5.69999V12.4Z" fill="#333333"/>
<path d="M8.50001 4.79999C6.10001 4.79999 4.20001 6.69999 4.20001 9.09999C4.20001 11.5 6.10001 13.4 8.50001 13.4C10.9 13.4 12.8 11.5 12.8 9.09999C12.8 6.69999 10.9 4.79999 8.50001 4.79999ZM8.50001 11.7C7.00001 11.7 5.80001 10.5 5.80001 9.09999C5.80001 7.69999 7.00001 6.49999 8.50001 6.49999C10 6.49999 11.2 7.69999 11.2 9.09999C11.1 10.5 9.90001 11.7 8.50001 11.7Z" fill="#333333"/>
<path d="M12.8 5.79999C13.3523 5.79999 13.8 5.35227 13.8 4.79999C13.8 4.2477 13.3523 3.79999 12.8 3.79999C12.2477 3.79999 11.8 4.2477 11.8 4.79999C11.8 5.35227 12.2477 5.79999 12.8 5.79999Z" fill="#333333"/>
</svg>
