<svg width="18"  viewBox="0 0 18 18" fill="none" xmlns="http://www.w3.org/2000/svg">
<path d="M9.00001 0.1C9.10001 2.23517e-08 9.2 0 9.7 0C9.9 0 10.3 2.23517e-08 10.5 0.1C11.5 0.2 12.1 0.4 13 0.8C13.9 1.2 14.4 1.6 15.2 2.3C15.9 3 16.2 3.5 16.7 4.3C17.3 5.4 17.6 6.7 17.6 8.1C17.6 8.6 17.6 8.7 17.5 8.8C17.3 9.1 16.8 9 16.6 8.7C16.5 8.6 16.5 8.5 16.5 8.1C16.5 7.5 16.4 7.1 16.4 6.6C16.1 4.8 15.2 3.3 13.7 2.3C12.5 1.4 11.5 1.1 9.80001 1C9.20001 1 9.10001 1 9.00001 0.9C8.80001 0.7 8.80001 0.3 9.00001 0.1Z" fill="#333333"/>
<path d="M12 3.79999C11.4 3.49999 10.6 3.19999 9.8 3.09999C9.5 3.09999 9.4 2.99999 9.3 2.89999C9.1 2.79999 9.09999 2.49999 9.19999 2.29999C9.29999 2.09999 9.6 1.99999 10.3 2.19999C12 2.39999 13.4 3.19999 14.3 4.49999C14.8 5.19999 15.1 6.09999 15.2 6.99999C15.2 7.29999 15.2 7.89999 15.2 7.99999C15.2 8.09999 15.1 8.19999 14.9 8.29999C14.8 8.39999 14.5 8.39999 14.4 8.29999C14.2 8.19999 14.1 7.99999 14.1 7.59999C14.1 6.89999 13.9 6.09999 13.6 5.49999C13.2 4.79999 12.6 4.19999 12 3.79999Z" fill="#333333"/>
<path d="M12.7 7.79999C12.5 7.89999 12.2 7.89999 12 7.79999C11.9 7.69999 11.8 7.59999 11.8 7.29999C11.8 6.89999 11.7 6.59999 11.6 6.39999C11.4 5.89999 10.9 5.59999 10.2 5.49999C9.79998 5.49999 9.79999 5.39999 9.59999 5.29999C9.39999 5.09999 9.49998 4.69999 9.69998 4.49999C9.79998 4.39999 9.79999 4.39999 10.1 4.49999C10.2 4.49999 10.5 4.49999 10.6 4.59999C11.2 4.69999 11.6 4.89999 12 5.29999C12.5 5.69999 12.7 6.29999 12.8 6.99999C12.9 7.39999 12.9 7.59999 12.7 7.79999Z" fill="#333333"/>
<path d="M17.5 14.2C17.5 13.9 17.4 13.7 17.2 13.5C17 13.3 15.8 12.3 15.2 11.9C14.8 11.6 14.1 11.2 13.8 11C13.4 10.8 13 10.8 12.6 10.9C12.5 10.9 12.5 11 12.4 11C12.2 11.1 12.1 11.3 11.7 11.7C11.5 12 11.3 12.3 11.2 12.3C11.2 12.3 11.1 12.4 11 12.4C10.6 12.6 10.1 12.5 9.30001 12.1C8.60001 11.8 8.1 11.4 7.4 10.8C6.8 10.3 6.3 9.69999 6 9.19999C5.6 8.49999 5.30001 7.69999 5.30001 7.19999C5.30001 6.99999 5.4 6.69999 5.5 6.59999L5.60001 6.49999C5.70001 6.39999 5.9 6.29999 6 6.09999C6.7 5.59999 6.8 5.39999 6.9 5.09999C7 4.79999 6.90001 4.39999 6.60001 3.89999C6.10001 2.89999 4.6 0.999994 4 0.699994C3.9 0.599994 3.8 0.599994 3.7 0.499994C3.5 0.399994 3.1 0.399994 3 0.399994C2.7 0.499994 2.4 0.699994 1.7 1.19999C1.3 1.49999 0.700004 2.09999 0.500004 2.29999C0.200004 2.89999 0.200011 3.29999 0.600011 4.39999C1.00001 5.39999 1.4 6.39999 2 7.29999C2.1 7.49999 2.2 7.69999 2.4 7.89999C2.4 7.89999 2.4 7.89999 2.4 7.99999C2.5 8.19999 2.60001 8.39999 2.80001 8.59999C2.90001 8.7 2.9 8.69999 2.9 8.79999C3 8.89999 3.1 9.09999 3.2 9.19999C3.3 9.39999 3.5 9.59999 3.7 9.79999C5.4 12 7.4 13.8 9.7 15.3C9.7 15.3 9.80001 15.3 9.80001 15.4C10.2 15.6 10.5 15.8 10.9 16C11 16 11 16.1 11 16.1C11.4 16.3 11.7 16.5 12.1 16.7C12.1 16.7 12.2 16.7 12.2 16.8C12.6 17 13 17.2 13.4 17.3C13.9 17.5 14.1 17.5 14.5 17.5C14.7 17.5 14.9 17.5 15 17.4C15.2 17.3 15.4 17.2 15.7 17C15.8 17 15.8 16.9 15.8 16.9C15.9 16.9 15.9 16.8 16 16.8C16.3 16.5 16.7 16.1 17 15.7C17.2 15.4 17.4 15.2 17.4 15C17.5 14.6 17.5 14.4 17.5 14.2Z" fill="#333333"/>
</svg>
