<svg width="22" height="14" viewBox="0 0 22 14" fill="none" xmlns="http://www.w3.org/2000/svg">
<path d="M21.5 1.69999C21.7 1.19999 21.5 0.799988 20.8 0.799988H18.4C17.8 0.799988 17.5 1.09999 17.4 1.49999C17.4 1.49999 16.2 4.49999 14.4 6.39999C13.8 6.99999 13.6 7.09999 13.3 7.09999C13.1 7.09999 12.9 6.89999 12.9 6.39999V1.69999C12.9 1.09999 12.7 0.799988 12.2 0.799988H8.4C8 0.799988 7.8 1.09999 7.8 1.39999C7.8 1.99999 8.7 2.09999 8.8 3.79999V7.39999C8.8 8.19999 8.7 8.29999 8.4 8.29999C7.6 8.29999 5.6 5.29999 4.4 1.89999C4.1 1.09999 3.9 0.799988 3.2 0.799988H0.8C0.1 0.799988 0 1.09999 0 1.49999C0 2.09999 0.8 5.29999 3.8 9.49999C5.8 12.4 8.6 13.9 11.2 13.9C12.7 13.9 12.9 13.6 12.9 13V10.8C12.9 10.1 13 9.99999 13.5 9.99999C13.9 9.99999 14.5 10.2 15.9 11.6C17.5 13.2 17.8 14 18.7 14H21.1C21.8 14 22.1 13.7 21.9 13C21.7 12.3 20.9 11.3 19.9 10.2C19.3 9.49999 18.5 8.79999 18.2 8.49999C17.8 7.99999 17.9 7.79999 18.2 7.39999C18.3 7.19999 21.2 3.09999 21.5 1.69999Z" fill="#333333"/>
</svg>
