<svg width="19" height="19" viewBox="0 0 19 19" fill="none" xmlns="http://www.w3.org/2000/svg">
<path d="M18.2 8.8C18.2 13.7 14.2 17.6 9.3 17.6C7.7 17.6 6.3 17.2 5 16.5L0.100006 18.1L1.7 13.4C0.899997 12.1 0.399994 10.5 0.399994 8.8C0.399994 3.9 4.4 0 9.3 0C14.2 0 18.2 4 18.2 8.8ZM9.2 1.4C5.1 1.4 1.7 4.7 1.7 8.8C1.7 10.4 2.20001 11.9 3.10001 13.2L2.2 16L5.10001 15.1C6.30001 15.9 7.7 16.3 9.2 16.3C13.3 16.3 16.7 13 16.7 8.9C16.7 4.8 13.4 1.4 9.2 1.4ZM13.7 10.9C13.6 10.8 13.5 10.8 13.3 10.6C13.1 10.5 12 10 11.8 9.9C11.6 9.8 11.5 9.8 11.3 10C11.2 10.2 10.7 10.7 10.6 10.8C10.5 10.9 10.3 11 10.1 10.9C9.90001 10.8 9.2 10.6 8.3 9.8C7.7 9.2 7.20001 8.5 7.10001 8.3C7.00001 8.1 7.1 8 7.2 7.9C7.3 7.8 7.4 7.6 7.5 7.5C7.6 7.4 7.6 7.3 7.7 7.1C7.8 7 7.7 6.8 7.7 6.7C7.6 6.6 7.2 5.5 7 5.1C6.8 4.7 6.6 4.7 6.5 4.7C6.4 4.7 6.20001 4.7 6.10001 4.7C6.00001 4.7 5.7 4.8 5.5 5C5.3 5.2 4.7 5.7 4.7 6.8C4.7 7.9 5.50001 8.9 5.60001 9C5.70001 9.1 7.1 11.4 9.3 12.3C11.5 13.2 11.5 12.9 11.9 12.8C12.3 12.8 13.2 12.3 13.4 11.8C13.8 11.4 13.8 11 13.7 10.9Z" fill="#333333"/>
</svg>
