<svg width="152" height="162" viewBox="0 0 146 162" fill="none" xmlns="http://www.w3.org/2000/svg">
<path d="M144 34.1L74.3 0.500012C73.4 0.100012 72.4 0.100012 71.5 0.500012L1.9 34.1C0.7 34.6 0 35.8 0 37V118.7C0 119.9 0.7 121.1 1.9 121.7L71.5 155.3C71.9 155.5 72.4 155.6 72.9 155.6C73.4 155.6 73.9 155.5 74.3 155.3L143.9 121.7C145 121.2 145.8 120 145.8 118.7V37C145.8 35.8 145.1 34.6 144 34.1ZM76.2 72.7L91.2 65.5C92.8 64.7 93.5 62.8 92.7 61.1C91.9 59.5 90 58.8 88.3 59.6L72.9 67L67.1 64.2C66.3 63.8 65.4 63.8 64.6 64.1C63.8 64.4 63.1 65 62.7 65.8C61.9 67.4 62.6 69.4 64.2 70.2L69.6 72.8V147.2L6.6 116.6V42.3L54.7 65.5C55.1 65.7 55.6 65.8 56.1 65.8C57.3 65.8 58.5 65.1 59.1 63.9C59.9 62.3 59.2 60.3 57.6 59.5L10.8 37L30.8 27.4L97.3 59.5V85.8C97.3 86.9 97.9 88 98.8 88.6C99.7 89.2 101 89.3 102 88.8L118.8 80.7C119.9 80.2 120.7 79 120.7 77.7V51.3L139.4 42.3V116.7L76.3 147.2V72.7H76.2ZM103.8 80.6V59.4L114.1 54.4V75.6L103.8 80.6ZM118.8 44.9L56.7 14.9L73 7.00001L135 37L118.8 44.9ZM100.4 53.8L38.4 23.9L49.2 18.7L111.2 48.6L100.4 53.8Z" fill="#F8F8F8"/>
</svg>
