<svg width="81" height="81" viewBox="0 0 81 81" fill="none" xmlns="http://www.w3.org/2000/svg">
<path d="M78.5 60.2031L68.4 50.0031C65.9 47.5031 61.8 47.5031 59.3 50.0031L54.7 54.6031C52.3 57.0031 48.3 57.0031 45.9 54.6031L25.8 34.5031C24.6 33.3031 24 31.8031 24 30.1031C24 28.4031 24.6 26.9031 25.8 25.7031L30.4 21.1031C31.6 19.9031 32.3 18.3031 32.3 16.6031C32.3 14.9031 31.6 13.3031 30.4 12.0031L20.2 1.90305C19 0.703052 17.4 0.00305176 15.7 0.00305176C14 0.00305176 12.4 0.703052 11.2 1.90305C9.09999 3.90305 8.39999 4.60305 7.49999 5.50305C-2.30001 15.3031 -2.30001 31.3031 7.49999 41.1031L39.3 72.9031C44.1 77.7031 50.4 80.3031 57.1 80.3031C63.8 80.3031 70.1 77.7031 74.9 72.9031L78.6 69.203C81 66.703 81 62.7031 78.5 60.2031ZM13.5 4.20305C14.7 3.00305 16.8 3.00305 18 4.20305L28.1 14.3031C28.7 14.9031 29 15.7031 29 16.6031C29 17.4031 28.7 18.2031 28.1 18.9031L25.9 21.1031L11.2 6.40305L13.5 4.20305ZM71 72.0031C66.9 75.4031 61.9 77.1031 57 77.1031C51.4 77.1031 45.8 74.9031 41.5 70.6031L9.69999 38.9031C1.69999 30.8031 1.09999 18.1031 8.39999 9.30305L8.89999 8.60305L23.5 23.2031L23.1 23.9031C19.8 27.6031 20 33.3031 23.5 36.8031L43.6 56.9031C47.1 60.4031 52.8 60.6031 56.5 57.3031L57.1 56.8031L71.8 71.5031L71 72.0031ZM76.3 67.0031L74.1 69.203L59.3 54.5031L61.6 52.3031C62.8 51.1031 64.9 51.1031 66.1 52.3031L76.3 62.5031C76.9 63.1031 77.2 63.903 77.2 64.703C77.2 65.6031 76.9 66.4031 76.3 67.0031Z" fill="#8C003D"/>
</svg>
