<svg width="162" height="162" viewBox="0 0 153 162" fill="none" xmlns="http://www.w3.org/2000/svg">
<path d="M101.499 84.6C93.0993 84.6 86.2993 91.4 86.2993 99.8C86.2993 108.2 93.0993 115 101.499 115C109.899 115 116.699 108.2 116.699 99.8C116.699 91.4 109.899 84.6 101.499 84.6ZM101.499 110C95.8993 110 91.2993 105.4 91.2993 99.8C91.2993 94.2 95.8993 89.6 101.499 89.6C107.099 89.6 111.699 94.2 111.699 99.8C111.699 105.4 107.099 110 101.499 110Z" fill="#F8F8F8"/>
<path d="M106.599 110V120.5L102.899 118.1C101.999 117.5 100.899 117.5 100.099 118.1L96.3994 120.5V110H91.3994V125.2C91.3994 126.1 91.8993 127 92.6993 127.4C93.4993 127.8 94.4993 127.8 95.2993 127.3L101.499 123.2L107.699 127.3C108.099 127.6 108.599 127.7 109.099 127.7C109.499 127.7 109.899 127.6 110.299 127.4C111.099 127 111.599 126.1 111.599 125.2V110H106.599Z" fill="#F8F8F8"/>
<path d="M91.3994 26.2H58.3994V31.3H91.3994V26.2Z" fill="#F8F8F8"/>
<path d="M116.799 41.5H35.5994V46.6H116.799V41.5Z" fill="#F8F8F8"/>
<path d="M91.3994 56.7H35.5994V61.8H91.3994V56.7Z" fill="#F8F8F8"/>
<path d="M116.699 56.7H101.499V61.8H116.699V56.7Z" fill="#F8F8F8"/>
<path d="M116.799 71.9H35.5994V77H116.799V71.9Z" fill="#F8F8F8"/>
<path d="M66.0994 87.1H35.5994V92.2H66.0994V87.1Z" fill="#F8F8F8"/>
<path d="M48.2993 99.8H35.5994V104.9H48.2993V99.8Z" fill="#F8F8F8"/>
<path d="M65.9994 99.8H58.3994V104.9H65.9994V99.8Z" fill="#F8F8F8"/>
<path d="M139.599 0.799988C132.599 0.799988 126.899 6.49999 126.899 13.5V18.6C126.899 20 127.999 21.1 129.399 21.1H149.699C151.099 21.1 152.199 20 152.199 18.6V13.5C152.299 6.49999 146.599 0.799988 139.599 0.799988ZM147.199 16.1H131.999V13.6C131.999 9.39999 135.399 5.99999 139.599 5.99999C143.799 5.99999 147.199 9.39999 147.199 13.6V16.1Z" fill="#F8F8F8"/>
<path d="M139.599 0.799988H32.9994C25.9994 0.799988 20.2993 6.49999 20.2993 13.5V135.3H25.3994V13.5C25.3994 9.29999 28.7994 5.89999 32.9994 5.89999H129.499C127.899 7.99999 126.999 10.7 126.999 13.5V140.4C126.999 144.6 123.599 148 119.399 148H22.9994V153.1H119.399C126.399 153.1 132.099 147.4 132.099 140.4V13.5C132.099 9.29999 135.499 5.89999 139.699 5.89999C141.099 5.89999 142.199 4.79999 142.199 3.39999C142.199 1.99999 140.999 0.799988 139.599 0.799988Z" fill="#F8F8F8"/>
<path d="M119.299 148.1C115.099 148.1 111.699 144.7 111.699 140.5V135.4C111.699 134 110.599 132.9 109.199 132.9H2.59937C1.19937 132.9 0.0993652 134 0.0993652 135.4V140.5C0.0993652 147.5 5.79935 153.2 12.7993 153.2H119.399C120.799 153.2 121.899 152.1 121.899 150.7C121.799 149.2 120.699 148.1 119.299 148.1ZM12.6993 148.1C8.49934 148.1 5.09937 144.7 5.09937 140.5V138H106.599V140.5C106.599 143.4 107.499 146 109.099 148.1H12.6993Z" fill="#F8F8F8"/>
</svg>
