<svg width="82" height="83" viewBox="0 0 82 83" fill="none" xmlns="http://www.w3.org/2000/svg">
<path d="M75.05 0.203064H6.84998C3.04998 0.203064 0.0499878 3.30306 0.0499878 7.00306V75.2031C0.0499878 79.0031 3.14998 82.0031 6.84998 82.0031H75.05C78.85 82.0031 81.85 78.9031 81.85 75.2031V7.00306C81.85 3.30306 78.85 0.203064 75.05 0.203064ZM79.15 75.3031C79.15 77.6031 77.35 79.4031 75.05 79.4031H6.84998C4.54998 79.4031 2.74994 77.6031 2.74994 75.3031V13.8031H79.15V75.3031ZM79.15 11.1031H2.74994V7.00306C2.74994 4.70306 4.54998 2.90306 6.84998 2.90306H75.05C77.35 2.90306 79.15 4.70306 79.15 7.00306V11.1031Z" fill="#8C003D"/>
<path d="M9.54999 5.70306H8.14996C7.34996 5.70306 6.74994 6.30306 6.74994 7.10306C6.74994 7.90306 7.34996 8.50306 8.14996 8.50306H9.54999C10.35 8.50306 10.95 7.90306 10.95 7.10306C10.95 6.30306 10.25 5.70306 9.54999 5.70306Z" fill="#8C003D"/>
<path d="M15.55 5.80308C15.25 5.60308 14.85 5.60308 14.55 5.80308C14.35 5.90308 14.25 6.00308 14.05 6.10308C13.55 6.60308 13.55 7.50308 14.05 8.00308C14.15 8.10308 14.35 8.20308 14.55 8.30308C14.85 8.40308 15.25 8.40308 15.55 8.30308C15.75 8.20308 15.85 8.10308 16.05 8.00308C16.55 7.50308 16.55 6.60308 16.05 6.10308C15.85 5.90308 15.65 5.80308 15.55 5.80308Z" fill="#8C003D"/>
<path d="M20.9499 5.80306C20.4499 5.60306 19.8499 5.70306 19.4499 6.10306C19.3499 6.20306 19.25 6.40306 19.15 6.50306C19.05 6.80306 19.05 7.20306 19.15 7.50306C19.25 7.70306 19.3499 7.80306 19.4499 7.90306C19.9499 8.40306 20.85 8.40306 21.35 7.90306C21.45 7.80306 21.55 7.60306 21.65 7.50306C21.75 7.30306 21.7499 7.20306 21.7499 7.00306C21.8499 6.50306 21.4499 6.00306 20.9499 5.80306Z" fill="#8C003D"/>
<path d="M73.65 5.70306H27.2499C26.4499 5.70306 25.85 6.30306 25.85 7.10306C25.85 7.90306 26.4499 8.50306 27.2499 8.50306H73.65C74.45 8.50306 75.05 7.90306 75.05 7.10306C75.05 6.30306 74.45 5.70306 73.65 5.70306Z" fill="#8C003D"/>
<path d="M20.9499 65.2031C21.0499 65.3031 21.05 65.3031 21.15 65.4031C26.25 70.9031 33.4499 74.0031 40.9499 74.0031C48.4499 74.0031 55.6499 70.9031 60.7499 65.4031C60.8499 65.4031 60.8499 65.3031 60.9499 65.3031C60.9499 65.2031 61.05 65.2031 61.05 65.1031C70.65 54.7031 70.65 38.7031 61.05 28.3031C61.05 28.2031 60.9499 28.2031 60.9499 28.1031C60.8499 28.0031 60.8499 28.0031 60.7499 27.9031C55.6499 22.4031 48.4499 19.3031 40.9499 19.3031C33.4499 19.3031 26.25 22.4031 21.15 27.9031C21.05 27.9031 21.0499 28.0031 20.9499 28.1031C20.9499 28.2031 20.85 28.2031 20.85 28.3031C11.25 38.7031 11.25 54.7031 20.85 65.1031C20.85 65.1031 20.8499 65.1031 20.9499 65.2031ZM48.35 70.0031C50.45 67.5031 52.0499 64.5031 52.9499 61.4031C54.6499 62.2031 56.2499 63.2031 57.7499 64.4031C55.1499 66.9031 51.95 68.9031 48.35 70.0031ZM59.7499 62.4031C57.9499 60.9031 55.95 59.7031 53.85 58.8031C54.75 55.3031 55.2499 51.7031 55.2499 48.0031H65.4499C65.1499 53.3031 63.1499 58.3031 59.7499 62.4031ZM65.4499 45.2031H55.2499C55.1499 41.6031 54.65 37.9031 53.85 34.4031C55.95 33.4031 57.9499 32.2031 59.7499 30.8031C63.1499 34.9031 65.1499 39.9031 65.4499 45.2031ZM57.85 28.8031C56.35 30.0031 54.75 31.0031 53.05 31.8031C52.05 28.7031 50.5499 25.7031 48.4499 23.2031C51.9499 24.3031 55.15 26.3031 57.85 28.8031ZM42.2499 22.2031C45.5499 23.1031 48.5499 27.1031 50.4499 32.8031C47.8499 33.7031 45.0499 34.2031 42.2499 34.4031V22.2031ZM42.2499 37.1031C45.2499 37.0031 48.25 36.4031 51.15 35.5031C51.95 38.7031 52.3499 42.0031 52.4499 45.3031H42.2499V37.1031ZM42.2499 48.0031H52.4499C52.3499 51.3031 51.95 54.6031 51.15 57.8031C48.25 56.8031 45.2499 56.3031 42.2499 56.2031V48.0031ZM42.2499 58.8031C45.0499 58.9031 47.7499 59.4031 50.4499 60.4031C48.5499 66.1031 45.6499 70.1031 42.2499 71.0031V58.8031ZM24.05 64.4031C25.55 63.2031 27.15 62.2031 28.85 61.4031C29.85 64.5031 31.3499 67.5031 33.4499 70.0031C29.9499 68.9031 26.65 66.9031 24.05 64.4031ZM39.55 71.0031C36.25 70.1031 33.25 66.1031 31.35 60.4031C33.95 59.5031 36.75 59.0031 39.55 58.8031V71.0031ZM39.55 56.1031C36.55 56.2031 33.55 56.8031 30.65 57.7031C29.85 54.5031 29.45 51.2031 29.35 47.9031H39.55V56.1031ZM39.55 45.2031H29.35C29.45 41.9031 29.85 38.6031 30.65 35.4031C33.55 36.4031 36.55 36.9031 39.55 37.0031V45.2031ZM39.55 22.2031V34.3031C36.75 34.2031 34.05 33.7031 31.35 32.7031C33.25 27.1031 36.25 23.1031 39.55 22.2031ZM33.4499 23.2031C31.3499 25.7031 29.75 28.7031 28.85 31.8031C27.15 31.0031 25.55 30.0031 24.05 28.8031C26.65 26.3031 29.9499 24.3031 33.4499 23.2031ZM22.15 30.8031C23.95 32.3031 25.95 33.5031 28.05 34.4031C27.15 37.9031 26.65 41.5031 26.65 45.2031H16.4499C16.7499 39.9031 18.75 34.9031 22.15 30.8031ZM26.65 48.0031C26.75 51.6031 27.25 55.3031 28.05 58.8031C25.95 59.8031 23.95 61.0031 22.15 62.4031C18.75 58.3031 16.7499 53.3031 16.4499 48.0031H26.65Z" fill="#8C003D"/>
</svg>
