<svg width="162" height="162" viewBox="0 0 162 162" fill="none" xmlns="http://www.w3.org/2000/svg">
<path d="M157.6 55.6L106.4 4.3C103.6 1.5 99.9 0 96 0C92.1 0 88.4 1.5 85.6 4.3L4.29999 85.6C1.49999 88.4 0 92.1 0 96C0 99.9 1.49999 103.6 4.29999 106.4L10.6 112.7L53.1 155.2H47.2C45.3 155.2 43.8 156.7 43.8 158.6C43.8 160.5 45.3 162 47.2 162H65.9H114.6C116.5 162 118 160.5 118 158.6C118 156.7 116.5 155.2 114.6 155.2H78.7L157.5 76.4C163.4 70.6 163.4 61.3 157.6 55.6ZM152.9 71.6L71.6 152.9C70.1 154.4 68.1 155.2 66 155.2C63.9 155.2 61.9 154.4 60.4 152.9L17.8 110.3L95.8 32.2C97.1 30.9 97.1 28.7 95.8 27.4C94.5 26.1 92.3 26.1 91 27.4L12.9 105.5L9 101.6C7.5 100.1 6.70001 98.1 6.70001 96C6.70001 93.9 7.5 91.9 9 90.4L90.3 9.1C91.8 7.6 93.8 6.8 95.9 6.8C98 6.8 100 7.6 101.5 9.1L119.8 27.3L41.8 105.4C40.5 106.7 40.5 108.9 41.8 110.2C42.5 110.9 43.3 111.2 44.2 111.2C45.1 111.2 45.9 110.9 46.6 110.2L124.7 32.1L153 60.4C156 63.5 156 68.5 152.9 71.6Z" fill="#F8F8F8"/>
<path d="M83.1 97.5C81.8 96.2 79.6 96.2 78.3 97.5L51.8 124C50.5 125.3 50.5 127.5 51.8 128.8C52.5 129.5 53.3 129.8 54.2 129.8C55.1 129.8 55.9 129.5 56.6 128.8L83.2 102.2C84.4 100.9 84.4 98.8 83.1 97.5Z" fill="#F8F8F8"/>
<path d="M72.2 122.7L61.3 133.6C60 134.9 60 137.1 61.3 138.4C62 139.1 62.8 139.4 63.7 139.4C64.6 139.4 65.4 139.1 66.1 138.4L77 127.5C78.3 126.2 78.3 124 77 122.7C75.7 121.3 73.5 121.3 72.2 122.7Z" fill="#F8F8F8"/>
<path d="M82.2 112.6L80.8 114C79.5 115.3 79.5 117.5 80.8 118.8C81.5 119.5 82.3 119.8 83.2 119.8C84.1 119.8 84.9 119.5 85.6 118.8L87 117.4C88.3 116.1 88.3 113.9 87 112.6C85.7 111.3 83.6 111.3 82.2 112.6Z" fill="#F8F8F8"/>
<path d="M128.8 51.8C128.2 51.2 127.3 50.8 126.4 50.8C125.5 50.8 124.6 51.2 124 51.8L109.7 66.1C109.1 66.7 108.7 67.6 108.7 68.5C108.7 69.4 109.1 70.3 109.7 70.9L119.2 80.4C119.9 81.1 120.7 81.4 121.6 81.4C122.5 81.4 123.3 81.1 124 80.4L138.3 66.1C139.6 64.8 139.6 62.6 138.3 61.3L128.8 51.8ZM121.6 73.3L116.8 68.5L126.3 59L131.1 63.8L121.6 73.3Z" fill="#F8F8F8"/>
<path d="M101.3 25.4C102.2 25.4 103 25.1 103.7 24.4L105.1 23C106.4 21.7 106.4 19.5 105.1 18.2C103.8 16.9 101.6 16.9 100.3 18.2L98.9 19.6C97.6 20.9 97.6 23.1 98.9 24.4C99.6 25 100.5 25.4 101.3 25.4Z" fill="#F8F8F8"/>
<path d="M33.9 113.3L32.5 114.7C31.2 116 31.2 118.2 32.5 119.5C33.2 120.2 34 120.5 34.9 120.5C35.8 120.5 36.6 120.2 37.3 119.5L38.7 118.1C40 116.8 40 114.6 38.7 113.3C37.3 112 35.2 112 33.9 113.3Z" fill="#F8F8F8"/>
</svg>
