<svg width="103" height="94" viewBox="0 0 103 94" fill="none" xmlns="http://www.w3.org/2000/svg">
<path d="M17.4 39.2784H39.5C40.4 39.2784 41.2 38.4783 41.2 37.5783C41.2 36.6783 40.4 35.8784 39.5 35.8784H17.4C16.5 35.8784 15.7 36.6783 15.7 37.5783C15.7 38.5783 16.5 39.2784 17.4 39.2784Z" fill="#8C003D"/>
<path d="M61.6 46.0783H17.4C16.5 46.0783 15.7 46.8784 15.7 47.7784C15.7 48.6784 16.5 49.4783 17.4 49.4783H61.6C62.5 49.4783 63.3 48.6784 63.3 47.7784C63.3 46.8784 62.6 46.0783 61.6 46.0783Z" fill="#8C003D"/>
<path d="M61.6 56.2784H17.4C16.5 56.2784 15.7 57.0783 15.7 57.9783C15.7 58.8783 16.5 59.6783 17.4 59.6783H61.6C62.5 59.6783 63.3 58.8783 63.3 57.9783C63.3 57.0783 62.6 56.2784 61.6 56.2784Z" fill="#8C003D"/>
<path d="M92.4 0.278351L34.3 0.178345C28.7 0.178345 24.2 4.67835 24.2 10.2784V18.9783H10.5C4.89999 18.9783 0.399994 23.4783 0.399994 29.0783V65.0783C0.399994 70.6783 4.89999 75.1783 10.5 75.1783H20.8V92.1783C20.8 92.8783 21.2 93.4783 21.9 93.7784C22.1 93.8783 22.3 93.8784 22.5 93.8784C23 93.8784 23.4 93.6784 23.8 93.2784L40.3 75.1783L68.6 75.0783C74.2 75.0783 78.7 70.5783 78.7 64.9783V64.7784L87.6 74.5783C87.9 74.9783 88.4 75.1783 88.9 75.1783C89.1 75.1783 89.3 75.1783 89.5 75.0783C90.2 74.8783 90.6 74.1783 90.6 73.4783V56.4783H92.4C98 56.4783 102.5 51.9784 102.5 46.3784V10.3784C102.5 4.87836 97.9 0.278351 92.4 0.278351ZM75.2 64.9783C75.2 68.6783 72.2 71.6783 68.5 71.6783L39.5 71.7784C39 71.7784 38.6 71.9784 38.3 72.3784L24.3 87.7784V73.4783C24.3 72.5783 23.5 71.7784 22.6 71.7784H10.6C6.89999 71.7784 3.89999 68.7783 3.89999 65.0783V29.0783C3.89999 25.3783 6.89999 22.3784 10.6 22.3784H26L68.6 22.2784C72.3 22.2784 75.3 25.2783 75.3 28.9783V64.9783H75.2ZM99.1 46.3784C99.1 50.0784 96.1 53.0783 92.4 53.0783H88.9C88 53.0783 87.2 53.8783 87.2 54.7784V69.0783L78.7 59.6783V28.9783C78.7 23.3783 74.2 18.8784 68.6 18.8784L27.7 18.9783V10.2784C27.7 6.57835 30.7 3.57834 34.4 3.57834L92.5 3.67834C96.2 3.67834 99.2 6.67836 99.2 10.3784V46.3784H99.1Z" fill="#8C003D"/>
</svg>
