<svg width="97" height="80" viewBox="0 0 97 80" fill="none" xmlns="http://www.w3.org/2000/svg">
<path d="M92.45 76.5783H90.85V34.4783C94.45 32.1783 96.95 28.0783 96.95 23.3783C96.95 23.1783 96.85 22.8783 96.75 22.6783L85.55 2.9783C84.75 1.5783 83.25 0.77832 81.65 0.77832H15.45C13.85 0.77832 12.35 1.6783 11.55 2.9783L0.349976 22.6783C0.249976 22.8783 0.149963 23.1783 0.149963 23.3783C0.149963 27.9783 2.55 32.0783 6.25 34.4783V76.5783H4.64996C3.84996 76.5783 3.25 77.1783 3.25 77.9783C3.25 78.7783 3.84996 79.3783 4.64996 79.3783H92.55C93.35 79.3783 93.95 78.7783 93.95 77.9783C93.85 77.1783 93.25 76.5783 92.45 76.5783ZM3.04999 24.8783H7.54999C8.34999 24.8783 8.95001 24.2783 8.95001 23.4783C8.95001 22.6783 8.34999 22.0783 7.54999 22.0783H3.95001L13.95 4.4783C14.25 3.9783 14.75 3.67831 15.35 3.67831H81.55C82.15 3.67831 82.65 3.9783 82.95 4.4783L92.95 22.0783H89.35C88.55 22.0783 87.95 22.6783 87.95 23.4783C87.95 24.2783 88.55 24.8783 89.35 24.8783H93.85C93.15 29.8783 88.85 33.7783 83.65 33.7783C78.45 33.7783 74.15 29.8783 73.45 24.8783H83.25C84.05 24.8783 84.65 24.2783 84.65 23.4783C84.65 22.6783 84.05 22.0783 83.25 22.0783H13.55C12.75 22.0783 12.15 22.6783 12.15 23.4783C12.15 24.2783 12.75 24.8783 13.55 24.8783H23.35C22.65 29.8783 18.35 33.7783 13.15 33.7783C8.04996 33.7783 3.74999 29.8783 3.04999 24.8783ZM70.55 24.8783C69.85 29.8783 65.55 33.7783 60.35 33.7783C55.15 33.7783 50.85 29.8783 50.15 24.8783H70.55ZM47.05 24.8783C46.35 29.8783 42.05 33.7783 36.85 33.7783C31.65 33.7783 27.35 29.8783 26.65 24.8783H47.05ZM80.45 76.5783H65.15V71.8783H80.45V76.5783ZM80.45 68.9783H65.15V42.9783H80.45V68.9783ZM88.05 76.5783H83.35V41.5783C83.35 40.7783 82.75 40.1783 81.95 40.1783H63.75C62.95 40.1783 62.35 40.7783 62.35 41.5783V76.4783H9.04999V35.7783C10.35 36.2783 11.85 36.4783 13.35 36.4783C18.45 36.4783 22.95 33.5783 25.05 29.2783C27.25 33.5783 31.65 36.4783 36.75 36.4783C41.85 36.4783 46.35 33.5783 48.45 29.2783C50.65 33.5783 55.05 36.4783 60.15 36.4783C65.25 36.4783 69.75 33.5783 71.85 29.2783C74.05 33.5783 78.45 36.4783 83.55 36.4783C85.05 36.4783 86.45 36.1783 87.85 35.7783V76.5783H88.05Z" fill="#8C003D"/>
<path d="M56.15 40.1783H15.25C14.45 40.1783 13.85 40.7783 13.85 41.5783V70.3783C13.85 71.1783 14.45 71.7783 15.25 71.7783H56.15C56.95 71.7783 57.55 71.1783 57.55 70.3783V41.5783C57.55 40.8783 56.85 40.1783 56.15 40.1783ZM54.65 68.9783H16.55V42.9783H54.65V68.9783Z" fill="#8C003D"/>
</svg>
